<svg width="24" height="24" viewBox="-9.5 -4 40 40" fill="none" xmlns="http://www.w3.org/2000/svg">
<g clip-path="url(#clip0_3772_3035)">
<g filter="url(#filter0_i_3772_3035)">
<path d="M9.79688 23.1432C10.1158 22.8237 10.6312 22.8238 10.9492 23.1432L14.6006 26.8102C14.9204 27.1305 14.9204 27.649 14.6006 27.9694L10.9492 31.6364C10.6312 31.9557 10.1158 31.9558 9.79688 31.6364L6.14648 27.9694C5.82757 27.649 5.82757 27.1305 6.14648 26.8102L9.79688 23.1432ZM4.12988 17.4489C4.44877 17.1285 4.96429 17.1286 5.2832 17.4489L8.93457 21.1158C9.25256 21.4353 9.25245 21.9546 8.93457 22.274L5.2832 25.942C4.96429 26.2615 4.44879 26.2615 4.12988 25.942L0.478516 22.274C0.160732 21.9546 0.160598 21.4352 0.478516 21.1158L4.12988 17.4489ZM15.4717 17.4479C15.7897 17.1289 16.3052 17.1288 16.624 17.4479L20.2744 21.1158C20.594 21.4362 20.5941 21.9547 20.2744 22.275L16.624 25.942C16.3052 26.2614 15.7897 26.2613 15.4717 25.942L11.8193 22.275C11.5014 21.9547 11.5015 21.4362 11.8193 21.1158L15.4717 17.4479ZM9.79688 11.7545C10.1158 11.435 10.6312 11.435 10.9492 11.7545L14.6016 15.4215C14.9204 15.7418 14.9204 16.2595 14.6016 16.5807L10.9492 20.2467C10.6312 20.5671 10.1158 20.5671 9.79688 20.2467L6.14648 16.5807C5.82671 16.2595 5.82673 15.7419 6.14648 15.4215L9.79688 11.7545ZM15.4707 6.0592C15.7896 5.7389 16.3043 5.73887 16.624 6.0592L20.2744 9.7262C20.5933 10.0465 20.5931 10.5649 20.2744 10.8844L16.624 14.5524C16.3043 14.8723 15.7895 14.8723 15.4707 14.5524L11.8193 10.8844C11.5015 10.5649 11.5013 10.0465 11.8193 9.7262L15.4707 6.0592ZM4.13086 6.0592C4.44886 5.73929 4.96527 5.73917 5.2832 6.0592L8.93457 9.7262C9.25261 10.0474 9.25261 10.565 8.93457 10.8854L5.2832 14.5524C4.96523 14.8718 4.44891 14.8717 4.13086 14.5524L0.479492 10.8854C0.160609 10.5651 0.160662 10.0474 0.479492 9.7262L4.13086 6.0592ZM9.79688 0.363892C10.1157 0.0446598 10.6312 0.0446802 10.9492 0.363892L14.6016 4.03186C14.92 4.35214 14.92 4.8698 14.6016 5.19006L10.9492 8.85803C10.6312 9.17719 10.1157 9.17721 9.79688 8.85803L6.14648 5.19006C5.82703 4.86978 5.82705 4.35216 6.14648 4.03186L9.79688 0.363892Z" fill="url(#paint0_linear_3772_3035)"/>
</g>
<path d="M9.83317 23.055C10.2005 22.6872 10.795 22.6877 11.1616 23.056L14.8117 26.7226H14.8127C15.1806 27.0914 15.1809 27.689 14.8127 28.0578L14.8117 28.0569L11.1616 31.7234C10.795 32.0917 10.2005 32.0923 9.83317 31.7244V31.7234L6.18208 28.0569C5.81532 27.6881 5.81542 27.0923 6.18208 26.7235L9.83317 23.055ZM10.9853 23.2304C10.7159 22.9601 10.2799 22.9606 10.0095 23.2314L10.0085 23.2304L6.35843 26.898C6.08782 27.1699 6.0878 27.6106 6.35843 27.8824L10.0085 31.5481C10.2789 31.8189 10.7158 31.8194 10.9853 31.549L14.6364 27.8815C14.9075 27.6097 14.9075 27.1708 14.6364 26.8989V26.898L10.9853 23.2304ZM4.16564 17.3613C4.53309 16.9923 5.1286 16.9922 5.49604 17.3613L9.14616 21.0289C9.51206 21.3968 9.51206 21.9934 9.14616 22.3612L5.49604 26.0298V26.0307C5.12864 26.3987 4.53304 26.3986 4.16564 26.0307V26.0298L0.514555 22.3612C0.148833 21.9934 0.148756 21.3967 0.514555 21.0289L4.16564 17.3613ZM15.5075 17.3613C15.8512 17.016 16.3949 16.9944 16.7642 17.2964L16.8359 17.3604V17.3613L20.4851 21.0279H20.486C20.8542 21.3968 20.8542 21.9943 20.486 22.3632L20.4851 22.3622L16.8359 26.0288V26.0298C16.4686 26.3977 15.8741 26.3971 15.5075 26.0288L11.8554 22.3622C11.4895 21.9935 11.4897 21.3976 11.8554 21.0289L15.5075 17.3613ZM5.31969 17.5357C5.04945 17.2646 4.61231 17.2646 4.342 17.5357L0.690908 21.2033C0.421215 21.4743 0.421228 21.9158 0.690908 22.1868L4.34103 25.8544C4.61144 26.1252 5.04933 26.1252 5.31969 25.8544L8.96981 22.1868C9.23961 21.9158 9.23961 21.4743 8.96981 21.2033L5.31969 17.5357ZM16.6596 17.5357C16.3892 17.2654 15.9531 17.2656 15.6838 17.5357L12.0318 21.2033C11.7619 21.4753 11.7619 21.9159 12.0318 22.1878L15.6838 25.8544C15.9533 26.1247 16.3892 26.1243 16.6596 25.8534L20.3097 22.1868C20.5809 21.915 20.5809 21.4761 20.3097 21.2043V21.2033L16.6596 17.5357ZM9.8322 11.6657C10.1995 11.2978 10.795 11.2986 11.1616 11.6667L14.8137 15.3342C15.1805 15.703 15.1801 16.2981 14.8137 16.6675L11.1616 20.3341C10.7949 20.7035 10.1996 20.7032 9.8322 20.3341L6.18208 16.6675C5.81476 16.298 5.81412 15.702 6.18208 15.3333L9.8322 11.6657ZM10.9853 11.8411C10.7158 11.5709 10.2788 11.5713 10.0085 11.8421L10.0076 11.8411L6.35843 15.5087V15.5096C6.08741 15.7813 6.08709 16.2203 6.35843 16.4931L10.0085 20.1597C10.2789 20.431 10.716 20.4308 10.9853 20.1597L14.6373 16.4931C14.9081 16.2202 14.9078 15.7804 14.6373 15.5087L10.9853 11.8411ZM15.5065 5.97203C15.8511 5.62585 16.3943 5.6043 16.7642 5.90711L16.8359 5.97106V5.97203L20.486 9.63959C20.8528 10.0084 20.8533 10.605 20.486 10.9729L20.4851 10.9719L16.8359 14.6395V14.6405C16.4678 15.0088 15.8739 15.0082 15.5065 14.6395L11.8554 10.9719C11.4894 10.604 11.4898 10.0082 11.8554 9.63959L15.5065 5.97203ZM4.16661 5.97203C4.53313 5.60324 5.12855 5.60324 5.49507 5.97203L9.14713 9.63862L9.21108 9.71033C9.51134 10.0815 9.49022 10.6261 9.14713 10.9719L5.49507 14.6395C5.12852 15.0076 4.53316 15.0076 4.16661 14.6395L0.515524 10.9719C0.148705 10.6031 0.148869 10.0081 0.515524 9.63862L4.16661 5.97203ZM5.31872 6.14645C5.04938 5.87567 4.61231 5.87567 4.34297 6.14645L0.691877 9.81304C0.421001 10.0859 0.4213 10.5257 0.691877 10.7975L4.34297 14.4651C4.61236 14.7353 5.04933 14.7353 5.31872 14.4651L8.97078 10.7975C9.20696 10.5595 9.2364 10.1931 9.05896 9.92253L8.97078 9.81304L5.31872 6.14645ZM16.6596 6.14645C16.3883 5.87521 15.953 5.8754 15.6829 6.14645L12.0318 9.81401C11.7618 10.086 11.7621 10.5266 12.0318 10.7975L15.6829 14.4651C15.9531 14.7359 16.3884 14.7354 16.6596 14.4641L20.3097 10.7965C20.5801 10.5256 20.5804 10.0859 20.3097 9.81401L16.6596 6.14645ZM9.8322 0.27544C10.1995 -0.0923837 10.795 -0.0915649 11.1616 0.276409L14.8137 3.94397C15.1804 4.31267 15.1801 4.90857 14.8137 5.27728L11.1616 8.94484C10.795 9.31312 10.1996 9.31375 9.8322 8.94581V8.94484L6.18208 5.27728C5.81472 4.90846 5.81415 4.31165 6.18208 3.943L9.8322 0.27544ZM10.9853 0.450824C10.7158 0.180675 10.2788 0.18111 10.0085 0.451793L10.0076 0.450824L6.35843 4.11839V4.11935C6.08733 4.39108 6.08732 4.83096 6.35843 5.10286L10.0076 8.76945C10.2779 9.0403 10.7158 9.04078 10.9853 8.77042L14.6373 5.10286C14.9078 4.83089 14.9079 4.39015 14.6373 4.11839L10.9853 0.450824Z" fill="url(#paint1_linear_3772_3035)"/>
</g>
<defs>
<filter id="filter0_i_3772_3035" x="0.240234" y="0.124451" width="20.5715" height="32.0495" filterUnits="userSpaceOnUse" color-interpolation-filters="sRGB">
<feFlood flood-opacity="0" result="BackgroundImageFix"/>
<feBlend mode="normal" in="SourceGraphic" in2="BackgroundImageFix" result="shape"/>
<feColorMatrix in="SourceAlpha" type="matrix" values="0 0 0 0 0 0 0 0 0 0 0 0 0 0 0 0 0 0 127 0" result="hardAlpha"/>
<feOffset dx="0.298071" dy="0.298071"/>
<feGaussianBlur stdDeviation="0.496785"/>
<feComposite in2="hardAlpha" operator="arithmetic" k2="-1" k3="1"/>
<feColorMatrix type="matrix" values="0 0 0 0 1 0 0 0 0 1 0 0 0 0 1 0 0 0 0.75 0"/>
<feBlend mode="lighten" in2="shape" result="effect1_innerShadow_3772_3035"/>
</filter>
<linearGradient id="paint0_linear_3772_3035" x1="4.1382" y1="31.876" x2="4.1382" y2="0.124634" gradientUnits="userSpaceOnUse">
<stop stop-color="#F240E3"/>
<stop offset="0.5" stop-color="#FD35CB"/>
<stop offset="1" stop-color="#FF4DB5"/>
</linearGradient>
<linearGradient id="paint1_linear_3772_3035" x1="4.26224" y1="31.8761" x2="4.26224" y2="0.12428" gradientUnits="userSpaceOnUse">
<stop stop-color="#F843E9"/>
<stop offset="1" stop-color="#FF83CD"/>
</linearGradient>
<clipPath id="clip0_3772_3035">
<rect width="21" height="32" fill="white"/>
</clipPath>
</defs>
</svg>
