<svg xmlns="http://www.w3.org/2000/svg" version="1.1" xmlns:xlink="http://www.w3.org/1999/xlink" xmlns:svgjs="http://svgjs.dev/svgjs" viewBox="0 0 800 800" width="800" height="800"><g stroke-width="0.6" stroke="hsla(216, 12%, 84%, 1.00)" fill="none"><rect width="44.44444444444444" height="44.44444444444444" x="0" y="0"></rect><rect width="44.44444444444444" height="44.44444444444444" x="44.44444444444444" y="0"></rect><rect width="44.44444444444444" height="44.44444444444444" x="88.88888888888889" y="0"></rect><rect width="44.44444444444444" height="44.44444444444444" x="133.33333333333331" y="0"></rect><rect width="44.44444444444444" height="44.44444444444444" x="177.77777777777777" y="0"></rect><rect width="44.44444444444444" height="44.44444444444444" x="222.22222222222223" y="0"></rect><rect fill="rgb(96 165 250)" width="44.44444444444444" height="44.44444444444444" x="266.6666666666667" y="0"></rect><rect width="44.44444444444444" height="44.44444444444444" x="311.11111111111114" y="0"></rect><rect width="44.44444444444444" height="44.44444444444444" x="355.5555555555556" y="0"></rect><rect width="44.44444444444444" height="44.44444444444444" x="400.00000000000006" y="0"></rect><rect width="44.44444444444444" height="44.44444444444444" x="444.4444444444445" y="0"></rect><rect fill="rgb(147 197 253)" width="44.44444444444444" height="44.44444444444444" x="488.88888888888897" y="0"></rect><rect fill="rgb(191 219 254)" width="44.44444444444444" height="44.44444444444444" x="533.3333333333334" y="0"></rect><rect width="44.44444444444444" height="44.44444444444444" x="577.7777777777778" y="0"></rect><rect width="44.44444444444444" height="44.44444444444444" x="622.2222222222223" y="0"></rect><rect width="44.44444444444444" height="44.44444444444444" x="666.6666666666667" y="0"></rect><rect width="44.44444444444444" height="44.44444444444444" x="711.1111111111112" y="0"></rect><rect width="44.44444444444444" height="44.44444444444444" x="755.5555555555557" y="0"></rect><rect width="44.44444444444444" height="44.44444444444444" x="800.0000000000001" y="0"></rect><rect width="44.44444444444444" height="44.44444444444444" x="0" y="44.44444444444444"></rect><rect width="44.44444444444444" height="44.44444444444444" x="44.44444444444444" y="44.44444444444444"></rect><rect width="44.44444444444444" height="44.44444444444444" x="88.88888888888889" y="44.44444444444444"></rect><rect width="44.44444444444444" height="44.44444444444444" x="133.33333333333331" y="44.44444444444444"></rect><rect width="44.44444444444444" height="44.44444444444444" x="177.77777777777777" y="44.44444444444444"></rect><rect width="44.44444444444444" height="44.44444444444444" x="222.22222222222223" y="44.44444444444444"></rect><rect width="44.44444444444444" height="44.44444444444444" x="266.6666666666667" y="44.44444444444444"></rect><rect width="44.44444444444444" height="44.44444444444444" x="311.11111111111114" y="44.44444444444444"></rect><rect width="44.44444444444444" height="44.44444444444444" x="355.5555555555556" y="44.44444444444444"></rect><rect width="44.44444444444444" height="44.44444444444444" x="400.00000000000006" y="44.44444444444444"></rect><rect width="44.44444444444444" height="44.44444444444444" x="444.4444444444445" y="44.44444444444444"></rect><rect width="44.44444444444444" height="44.44444444444444" x="488.88888888888897" y="44.44444444444444"></rect><rect width="44.44444444444444" height="44.44444444444444" x="533.3333333333334" y="44.44444444444444"></rect><rect width="44.44444444444444" height="44.44444444444444" x="577.7777777777778" y="44.44444444444444"></rect><rect width="44.44444444444444" height="44.44444444444444" x="622.2222222222223" y="44.44444444444444"></rect><rect fill="rgb(219 234 254)" width="44.44444444444444" height="44.44444444444444" x="666.6666666666667" y="44.44444444444444"></rect><rect width="44.44444444444444" height="44.44444444444444" x="711.1111111111112" y="44.44444444444444"></rect><rect width="44.44444444444444" height="44.44444444444444" x="755.5555555555557" y="44.44444444444444"></rect><rect width="44.44444444444444" height="44.44444444444444" x="800.0000000000001" y="44.44444444444444"></rect><rect width="44.44444444444444" height="44.44444444444444" x="0" y="88.88888888888889"></rect><rect width="44.44444444444444" height="44.44444444444444" x="44.44444444444444" y="88.88888888888889"></rect><rect width="44.44444444444444" height="44.44444444444444" x="88.88888888888889" y="88.88888888888889"></rect><rect fill="rgb(191 219 254)" width="44.44444444444444" height="44.44444444444444" x="133.33333333333331" y="88.88888888888889"></rect><rect width="44.44444444444444" height="44.44444444444444" x="177.77777777777777" y="88.88888888888889"></rect><rect width="44.44444444444444" height="44.44444444444444" x="222.22222222222223" y="88.88888888888889"></rect><rect width="44.44444444444444" height="44.44444444444444" x="266.6666666666667" y="88.88888888888889"></rect><rect width="44.44444444444444" height="44.44444444444444" x="311.11111111111114" y="88.88888888888889"></rect><rect fill="rgb(219 234 254)" width="44.44444444444444" height="44.44444444444444" x="355.5555555555556" y="88.88888888888889"></rect><rect width="44.44444444444444" height="44.44444444444444" x="400.00000000000006" y="88.88888888888889"></rect><rect width="44.44444444444444" height="44.44444444444444" x="444.4444444444445" y="88.88888888888889"></rect><rect width="44.44444444444444" height="44.44444444444444" x="488.88888888888897" y="88.88888888888889"></rect><rect width="44.44444444444444" height="44.44444444444444" x="533.3333333333334" y="88.88888888888889"></rect><rect fill="rgb(191 219 254)" width="44.44444444444444" height="44.44444444444444" x="577.7777777777778" y="88.88888888888889"></rect><rect width="44.44444444444444" height="44.44444444444444" x="622.2222222222223" y="88.88888888888889"></rect><rect width="44.44444444444444" height="44.44444444444444" x="666.6666666666667" y="88.88888888888889"></rect><rect width="44.44444444444444" height="44.44444444444444" x="711.1111111111112" y="88.88888888888889"></rect><rect width="44.44444444444444" height="44.44444444444444" x="755.5555555555557" y="88.88888888888889"></rect><rect width="44.44444444444444" height="44.44444444444444" x="800.0000000000001" y="88.88888888888889"></rect><rect width="44.44444444444444" height="44.44444444444444" x="0" y="133.33333333333331"></rect><rect width="44.44444444444444" height="44.44444444444444" x="44.44444444444444" y="133.33333333333331"></rect><rect fill="rgb(219 234 254)" width="44.44444444444444" height="44.44444444444444" x="88.88888888888889" y="133.33333333333331"></rect><rect width="44.44444444444444" height="44.44444444444444" x="133.33333333333331" y="133.33333333333331"></rect><rect width="44.44444444444444" height="44.44444444444444" x="177.77777777777777" y="133.33333333333331"></rect><rect width="44.44444444444444" height="44.44444444444444" x="222.22222222222223" y="133.33333333333331"></rect><rect width="44.44444444444444" height="44.44444444444444" x="266.6666666666667" y="133.33333333333331"></rect><rect width="44.44444444444444" height="44.44444444444444" x="311.11111111111114" y="133.33333333333331"></rect><rect width="44.44444444444444" height="44.44444444444444" x="355.5555555555556" y="133.33333333333331"></rect><rect width="44.44444444444444" height="44.44444444444444" x="400.00000000000006" y="133.33333333333331"></rect><rect width="44.44444444444444" height="44.44444444444444" x="444.4444444444445" y="133.33333333333331"></rect><rect width="44.44444444444444" height="44.44444444444444" x="488.88888888888897" y="133.33333333333331"></rect><rect width="44.44444444444444" height="44.44444444444444" x="533.3333333333334" y="133.33333333333331"></rect><rect width="44.44444444444444" height="44.44444444444444" x="577.7777777777778" y="133.33333333333331"></rect><rect width="44.44444444444444" height="44.44444444444444" x="622.2222222222223" y="133.33333333333331"></rect><rect width="44.44444444444444" height="44.44444444444444" x="666.6666666666667" y="133.33333333333331"></rect><rect width="44.44444444444444" height="44.44444444444444" x="711.1111111111112" y="133.33333333333331"></rect><rect width="44.44444444444444" height="44.44444444444444" x="755.5555555555557" y="133.33333333333331"></rect><rect width="44.44444444444444" height="44.44444444444444" x="800.0000000000001" y="133.33333333333331"></rect><rect width="44.44444444444444" height="44.44444444444444" x="0" y="177.77777777777777"></rect><rect width="44.44444444444444" height="44.44444444444444" x="44.44444444444444" y="177.77777777777777"></rect><rect width="44.44444444444444" height="44.44444444444444" x="88.88888888888889" y="177.77777777777777"></rect><rect width="44.44444444444444" height="44.44444444444444" x="133.33333333333331" y="177.77777777777777"></rect><rect width="44.44444444444444" height="44.44444444444444" x="177.77777777777777" y="177.77777777777777"></rect><rect width="44.44444444444444" height="44.44444444444444" x="222.22222222222223" y="177.77777777777777"></rect><rect width="44.44444444444444" height="44.44444444444444" x="266.6666666666667" y="177.77777777777777"></rect><rect fill="rgb(191 219 254)" width="44.44444444444444" height="44.44444444444444" x="311.11111111111114" y="177.77777777777777"></rect><rect width="44.44444444444444" height="44.44444444444444" x="355.5555555555556" y="177.77777777777777"></rect><rect width="44.44444444444444" height="44.44444444444444" x="400.00000000000006" y="177.77777777777777"></rect><rect width="44.44444444444444" height="44.44444444444444" x="444.4444444444445" y="177.77777777777777"></rect><rect width="44.44444444444444" height="44.44444444444444" x="488.88888888888897" y="177.77777777777777"></rect><rect width="44.44444444444444" height="44.44444444444444" x="533.3333333333334" y="177.77777777777777"></rect><rect width="44.44444444444444" height="44.44444444444444" x="577.7777777777778" y="177.77777777777777"></rect><rect width="44.44444444444444" height="44.44444444444444" x="622.2222222222223" y="177.77777777777777"></rect><rect fill="rgb(219 234 254)" width="44.44444444444444" height="44.44444444444444" x="666.6666666666667" y="177.77777777777777"></rect><rect width="44.44444444444444" height="44.44444444444444" x="711.1111111111112" y="177.77777777777777"></rect><rect width="44.44444444444444" height="44.44444444444444" x="755.5555555555557" y="177.77777777777777"></rect><rect width="44.44444444444444" height="44.44444444444444" x="800.0000000000001" y="177.77777777777777"></rect><rect width="44.44444444444444" height="44.44444444444444" x="0" y="222.22222222222223"></rect><rect width="44.44444444444444" height="44.44444444444444" x="44.44444444444444" y="222.22222222222223"></rect><rect width="44.44444444444444" height="44.44444444444444" x="88.88888888888889" y="222.22222222222223"></rect><rect fill="rgb(147 197 253)" width="44.44444444444444" height="44.44444444444444" x="133.33333333333331" y="222.22222222222223"></rect><rect fill="rgb(191 219 254)" width="44.44444444444444" height="44.44444444444444" x="177.77777777777777" y="222.22222222222223"></rect><rect width="44.44444444444444" height="44.44444444444444" x="222.22222222222223" y="222.22222222222223"></rect><rect width="44.44444444444444" height="44.44444444444444" x="266.6666666666667" y="222.22222222222223"></rect><rect width="44.44444444444444" height="44.44444444444444" x="311.11111111111114" y="222.22222222222223"></rect><rect width="44.44444444444444" height="44.44444444444444" x="355.5555555555556" y="222.22222222222223"></rect><rect width="44.44444444444444" height="44.44444444444444" x="400.00000000000006" y="222.22222222222223"></rect><rect width="44.44444444444444" height="44.44444444444444" x="444.4444444444445" y="222.22222222222223"></rect><rect fill="rgb(191 219 254)" width="44.44444444444444" height="44.44444444444444" x="488.88888888888897" y="222.22222222222223"></rect><rect width="44.44444444444444" height="44.44444444444444" x="533.3333333333334" y="222.22222222222223"></rect><rect width="44.44444444444444" height="44.44444444444444" x="577.7777777777778" y="222.22222222222223"></rect><rect width="44.44444444444444" height="44.44444444444444" x="622.2222222222223" y="222.22222222222223"></rect><rect width="44.44444444444444" height="44.44444444444444" x="666.6666666666667" y="222.22222222222223"></rect><rect width="44.44444444444444" height="44.44444444444444" x="711.1111111111112" y="222.22222222222223"></rect><rect fill="rgb(219 234 254)" width="44.44444444444444" height="44.44444444444444" x="755.5555555555557" y="222.22222222222223"></rect><rect width="44.44444444444444" height="44.44444444444444" x="800.0000000000001" y="222.22222222222223"></rect><rect width="44.44444444444444" height="44.44444444444444" x="0" y="266.6666666666667"></rect><rect width="44.44444444444444" height="44.44444444444444" x="44.44444444444444" y="266.6666666666667"></rect><rect fill="rgb(219 234 254)" width="44.44444444444444" height="44.44444444444444" x="88.88888888888889" y="266.6666666666667"></rect><rect width="44.44444444444444" height="44.44444444444444" x="133.33333333333331" y="266.6666666666667"></rect><rect width="44.44444444444444" height="44.44444444444444" x="177.77777777777777" y="266.6666666666667"></rect><rect width="44.44444444444444" height="44.44444444444444" x="222.22222222222223" y="266.6666666666667"></rect><rect width="44.44444444444444" height="44.44444444444444" x="266.6666666666667" y="266.6666666666667"></rect><rect width="44.44444444444444" height="44.44444444444444" x="311.11111111111114" y="266.6666666666667"></rect><rect width="44.44444444444444" height="44.44444444444444" x="355.5555555555556" y="266.6666666666667"></rect><rect width="44.44444444444444" height="44.44444444444444" x="400.00000000000006" y="266.6666666666667"></rect><rect width="44.44444444444444" height="44.44444444444444" x="444.4444444444445" y="266.6666666666667"></rect><rect width="44.44444444444444" height="44.44444444444444" x="488.88888888888897" y="266.6666666666667"></rect><rect width="44.44444444444444" height="44.44444444444444" x="533.3333333333334" y="266.6666666666667"></rect><rect width="44.44444444444444" height="44.44444444444444" x="577.7777777777778" y="266.6666666666667"></rect><rect width="44.44444444444444" height="44.44444444444444" x="622.2222222222223" y="266.6666666666667"></rect><rect width="44.44444444444444" height="44.44444444444444" x="666.6666666666667" y="266.6666666666667"></rect><rect width="44.44444444444444" height="44.44444444444444" x="711.1111111111112" y="266.6666666666667"></rect><rect width="44.44444444444444" height="44.44444444444444" x="755.5555555555557" y="266.6666666666667"></rect><rect width="44.44444444444444" height="44.44444444444444" x="800.0000000000001" y="266.6666666666667"></rect><rect width="44.44444444444444" height="44.44444444444444" x="0" y="311.11111111111114"></rect><rect width="44.44444444444444" height="44.44444444444444" x="44.44444444444444" y="311.11111111111114"></rect><rect width="44.44444444444444" height="44.44444444444444" x="88.88888888888889" y="311.11111111111114"></rect><rect width="44.44444444444444" height="44.44444444444444" x="133.33333333333331" y="311.11111111111114"></rect><rect width="44.44444444444444" height="44.44444444444444" x="177.77777777777777" y="311.11111111111114"></rect><rect width="44.44444444444444" height="44.44444444444444" x="222.22222222222223" y="311.11111111111114"></rect><rect fill="rgb(219 234 254)" width="44.44444444444444" height="44.44444444444444" x="266.6666666666667" y="311.11111111111114"></rect><rect width="44.44444444444444" height="44.44444444444444" x="311.11111111111114" y="311.11111111111114"></rect><rect width="44.44444444444444" height="44.44444444444444" x="355.5555555555556" y="311.11111111111114"></rect><rect fill="rgb(147 197 253)" width="44.44444444444444" height="44.44444444444444" x="400.00000000000006" y="311.11111111111114"></rect><rect width="44.44444444444444" height="44.44444444444444" x="444.4444444444445" y="311.11111111111114"></rect><rect width="44.44444444444444" height="44.44444444444444" x="488.88888888888897" y="311.11111111111114"></rect><rect width="44.44444444444444" height="44.44444444444444" x="533.3333333333334" y="311.11111111111114"></rect><rect width="44.44444444444444" height="44.44444444444444" x="577.7777777777778" y="311.11111111111114"></rect><rect width="44.44444444444444" height="44.44444444444444" x="622.2222222222223" y="311.11111111111114"></rect><rect width="44.44444444444444" height="44.44444444444444" x="666.6666666666667" y="311.11111111111114"></rect><rect fill="rgb(191 219 254)" width="44.44444444444444" height="44.44444444444444" x="711.1111111111112" y="311.11111111111114"></rect><rect width="44.44444444444444" height="44.44444444444444" x="755.5555555555557" y="311.11111111111114"></rect><rect width="44.44444444444444" height="44.44444444444444" x="800.0000000000001" y="311.11111111111114"></rect><rect width="44.44444444444444" height="44.44444444444444" x="0" y="355.5555555555556"></rect><rect width="44.44444444444444" height="44.44444444444444" x="44.44444444444444" y="355.5555555555556"></rect><rect width="44.44444444444444" height="44.44444444444444" x="88.88888888888889" y="355.5555555555556"></rect><rect width="44.44444444444444" height="44.44444444444444" x="133.33333333333331" y="355.5555555555556"></rect><rect width="44.44444444444444" height="44.44444444444444" x="177.77777777777777" y="355.5555555555556"></rect><rect width="44.44444444444444" height="44.44444444444444" x="222.22222222222223" y="355.5555555555556"></rect><rect width="44.44444444444444" height="44.44444444444444" x="266.6666666666667" y="355.5555555555556"></rect><rect width="44.44444444444444" height="44.44444444444444" x="311.11111111111114" y="355.5555555555556"></rect><rect width="44.44444444444444" height="44.44444444444444" x="355.5555555555556" y="355.5555555555556"></rect><rect width="44.44444444444444" height="44.44444444444444" x="400.00000000000006" y="355.5555555555556"></rect><rect width="44.44444444444444" height="44.44444444444444" x="444.4444444444445" y="355.5555555555556"></rect><rect width="44.44444444444444" height="44.44444444444444" x="488.88888888888897" y="355.5555555555556"></rect><rect width="44.44444444444444" height="44.44444444444444" x="533.3333333333334" y="355.5555555555556"></rect><rect fill="rgb(191 219 254)" width="44.44444444444444" height="44.44444444444444" x="577.7777777777778" y="355.5555555555556"></rect><rect width="44.44444444444444" height="44.44444444444444" x="622.2222222222223" y="355.5555555555556"></rect><rect width="44.44444444444444" height="44.44444444444444" x="666.6666666666667" y="355.5555555555556"></rect><rect width="44.44444444444444" height="44.44444444444444" x="711.1111111111112" y="355.5555555555556"></rect><rect width="44.44444444444444" height="44.44444444444444" x="755.5555555555557" y="355.5555555555556"></rect><rect width="44.44444444444444" height="44.44444444444444" x="800.0000000000001" y="355.5555555555556"></rect><rect width="44.44444444444444" height="44.44444444444444" x="0" y="400.00000000000006"></rect><rect width="44.44444444444444" height="44.44444444444444" x="44.44444444444444" y="400.00000000000006"></rect><rect width="44.44444444444444" height="44.44444444444444" x="88.88888888888889" y="400.00000000000006"></rect><rect width="44.44444444444444" height="44.44444444444444" x="133.33333333333331" y="400.00000000000006"></rect><rect fill="rgb(191 219 254)" width="44.44444444444444" height="44.44444444444444" x="177.77777777777777" y="400.00000000000006"></rect><rect width="44.44444444444444" height="44.44444444444444" x="222.22222222222223" y="400.00000000000006"></rect><rect width="44.44444444444444" height="44.44444444444444" x="266.6666666666667" y="400.00000000000006"></rect><rect width="44.44444444444444" height="44.44444444444444" x="311.11111111111114" y="400.00000000000006"></rect><rect width="44.44444444444444" height="44.44444444444444" x="355.5555555555556" y="400.00000000000006"></rect><rect width="44.44444444444444" height="44.44444444444444" x="400.00000000000006" y="400.00000000000006"></rect><rect width="44.44444444444444" height="44.44444444444444" x="444.4444444444445" y="400.00000000000006"></rect><rect width="44.44444444444444" height="44.44444444444444" x="488.88888888888897" y="400.00000000000006"></rect><rect width="44.44444444444444" height="44.44444444444444" x="533.3333333333334" y="400.00000000000006"></rect><rect width="44.44444444444444" height="44.44444444444444" x="577.7777777777778" y="400.00000000000006"></rect><rect width="44.44444444444444" height="44.44444444444444" x="622.2222222222223" y="400.00000000000006"></rect><rect width="44.44444444444444" height="44.44444444444444" x="666.6666666666667" y="400.00000000000006"></rect><rect width="44.44444444444444" height="44.44444444444444" x="711.1111111111112" y="400.00000000000006"></rect><rect width="44.44444444444444" height="44.44444444444444" x="755.5555555555557" y="400.00000000000006"></rect><rect width="44.44444444444444" height="44.44444444444444" x="800.0000000000001" y="400.00000000000006"></rect><rect width="44.44444444444444" height="44.44444444444444" x="0" y="444.4444444444445"></rect><rect width="44.44444444444444" height="44.44444444444444" x="44.44444444444444" y="444.4444444444445"></rect><rect width="44.44444444444444" height="44.44444444444444" x="88.88888888888889" y="444.4444444444445"></rect><rect fill="rgb(219 234 254)" width="44.44444444444444" height="44.44444444444444" x="133.33333333333331" y="444.4444444444445"></rect><rect width="44.44444444444444" height="44.44444444444444" x="177.77777777777777" y="444.4444444444445"></rect><rect width="44.44444444444444" height="44.44444444444444" x="222.22222222222223" y="444.4444444444445"></rect><rect width="44.44444444444444" height="44.44444444444444" x="266.6666666666667" y="444.4444444444445"></rect><rect width="44.44444444444444" height="44.44444444444444" x="311.11111111111114" y="444.4444444444445"></rect><rect width="44.44444444444444" height="44.44444444444444" x="355.5555555555556" y="444.4444444444445"></rect><rect width="44.44444444444444" height="44.44444444444444" x="400.00000000000006" y="444.4444444444445"></rect><rect width="44.44444444444444" height="44.44444444444444" x="444.4444444444445" y="444.4444444444445"></rect><rect width="44.44444444444444" height="44.44444444444444" x="488.88888888888897" y="444.4444444444445"></rect><rect width="44.44444444444444" height="44.44444444444444" x="533.3333333333334" y="444.4444444444445"></rect><rect width="44.44444444444444" height="44.44444444444444" x="577.7777777777778" y="444.4444444444445"></rect><rect width="44.44444444444444" height="44.44444444444444" x="622.2222222222223" y="444.4444444444445"></rect><rect width="44.44444444444444" height="44.44444444444444" x="666.6666666666667" y="444.4444444444445"></rect><rect width="44.44444444444444" height="44.44444444444444" x="711.1111111111112" y="444.4444444444445"></rect><rect width="44.44444444444444" height="44.44444444444444" x="755.5555555555557" y="444.4444444444445"></rect><rect width="44.44444444444444" height="44.44444444444444" x="800.0000000000001" y="444.4444444444445"></rect><rect width="44.44444444444444" height="44.44444444444444" x="0" y="488.88888888888897"></rect><rect width="44.44444444444444" height="44.44444444444444" x="44.44444444444444" y="488.88888888888897"></rect><rect width="44.44444444444444" height="44.44444444444444" x="88.88888888888889" y="488.88888888888897"></rect><rect width="44.44444444444444" height="44.44444444444444" x="133.33333333333331" y="488.88888888888897"></rect><rect width="44.44444444444444" height="44.44444444444444" x="177.77777777777777" y="488.88888888888897"></rect><rect width="44.44444444444444" height="44.44444444444444" x="222.22222222222223" y="488.88888888888897"></rect><rect width="44.44444444444444" height="44.44444444444444" x="266.6666666666667" y="488.88888888888897"></rect><rect width="44.44444444444444" height="44.44444444444444" x="311.11111111111114" y="488.88888888888897"></rect><rect width="44.44444444444444" height="44.44444444444444" x="355.5555555555556" y="488.88888888888897"></rect><rect width="44.44444444444444" height="44.44444444444444" x="400.00000000000006" y="488.88888888888897"></rect><rect width="44.44444444444444" height="44.44444444444444" x="444.4444444444445" y="488.88888888888897"></rect><rect width="44.44444444444444" height="44.44444444444444" x="488.88888888888897" y="488.88888888888897"></rect><rect width="44.44444444444444" height="44.44444444444444" x="533.3333333333334" y="488.88888888888897"></rect><rect width="44.44444444444444" height="44.44444444444444" x="577.7777777777778" y="488.88888888888897"></rect><rect fill="rgb(219 234 254)" width="44.44444444444444" height="44.44444444444444" x="622.2222222222223" y="488.88888888888897"></rect><rect width="44.44444444444444" height="44.44444444444444" x="666.6666666666667" y="488.88888888888897"></rect><rect width="44.44444444444444" height="44.44444444444444" x="711.1111111111112" y="488.88888888888897"></rect><rect width="44.44444444444444" height="44.44444444444444" x="755.5555555555557" y="488.88888888888897"></rect><rect width="44.44444444444444" height="44.44444444444444" x="800.0000000000001" y="488.88888888888897"></rect><rect width="44.44444444444444" height="44.44444444444444" x="0" y="533.3333333333334"></rect><rect width="44.44444444444444" height="44.44444444444444" x="44.44444444444444" y="533.3333333333334"></rect><rect width="44.44444444444444" height="44.44444444444444" x="88.88888888888889" y="533.3333333333334"></rect><rect width="44.44444444444444" height="44.44444444444444" x="133.33333333333331" y="533.3333333333334"></rect><rect width="44.44444444444444" height="44.44444444444444" x="177.77777777777777" y="533.3333333333334"></rect><rect width="44.44444444444444" height="44.44444444444444" x="222.22222222222223" y="533.3333333333334"></rect><rect width="44.44444444444444" height="44.44444444444444" x="266.6666666666667" y="533.3333333333334"></rect><rect width="44.44444444444444" height="44.44444444444444" x="311.11111111111114" y="533.3333333333334"></rect><rect fill="rgb(219 234 254)" width="44.44444444444444" height="44.44444444444444" x="355.5555555555556" y="533.3333333333334"></rect><rect width="44.44444444444444" height="44.44444444444444" x="400.00000000000006" y="533.3333333333334"></rect><rect width="44.44444444444444" height="44.44444444444444" x="444.4444444444445" y="533.3333333333334"></rect><rect width="44.44444444444444" height="44.44444444444444" x="488.88888888888897" y="533.3333333333334"></rect><rect width="44.44444444444444" height="44.44444444444444" x="533.3333333333334" y="533.3333333333334"></rect><rect width="44.44444444444444" height="44.44444444444444" x="577.7777777777778" y="533.3333333333334"></rect><rect width="44.44444444444444" height="44.44444444444444" x="622.2222222222223" y="533.3333333333334"></rect><rect width="44.44444444444444" height="44.44444444444444" x="666.6666666666667" y="533.3333333333334"></rect><rect width="44.44444444444444" height="44.44444444444444" x="711.1111111111112" y="533.3333333333334"></rect><rect width="44.44444444444444" height="44.44444444444444" x="755.5555555555557" y="533.3333333333334"></rect><rect width="44.44444444444444" height="44.44444444444444" x="800.0000000000001" y="533.3333333333334"></rect><rect fill="rgb(147 197 253)" width="44.44444444444444" height="44.44444444444444" x="0" y="577.7777777777778"></rect><rect width="44.44444444444444" height="44.44444444444444" x="44.44444444444444" y="577.7777777777778"></rect><rect width="44.44444444444444" height="44.44444444444444" x="88.88888888888889" y="577.7777777777778"></rect><rect width="44.44444444444444" height="44.44444444444444" x="133.33333333333331" y="577.7777777777778"></rect><rect width="44.44444444444444" height="44.44444444444444" x="177.77777777777777" y="577.7777777777778"></rect><rect width="44.44444444444444" height="44.44444444444444" x="222.22222222222223" y="577.7777777777778"></rect><rect width="44.44444444444444" height="44.44444444444444" x="266.6666666666667" y="577.7777777777778"></rect><rect fill="rgb(191 219 254)" width="44.44444444444444" height="44.44444444444444" x="311.11111111111114" y="577.7777777777778"></rect><rect width="44.44444444444444" height="44.44444444444444" x="355.5555555555556" y="577.7777777777778"></rect><rect width="44.44444444444444" height="44.44444444444444" x="400.00000000000006" y="577.7777777777778"></rect><rect width="44.44444444444444" height="44.44444444444444" x="444.4444444444445" y="577.7777777777778"></rect><rect width="44.44444444444444" height="44.44444444444444" x="488.88888888888897" y="577.7777777777778"></rect><rect width="44.44444444444444" height="44.44444444444444" x="533.3333333333334" y="577.7777777777778"></rect><rect width="44.44444444444444" height="44.44444444444444" x="577.7777777777778" y="577.7777777777778"></rect><rect width="44.44444444444444" height="44.44444444444444" x="622.2222222222223" y="577.7777777777778"></rect><rect width="44.44444444444444" height="44.44444444444444" x="666.6666666666667" y="577.7777777777778"></rect><rect width="44.44444444444444" height="44.44444444444444" x="711.1111111111112" y="577.7777777777778"></rect><rect width="44.44444444444444" height="44.44444444444444" x="755.5555555555557" y="577.7777777777778"></rect><rect width="44.44444444444444" height="44.44444444444444" x="800.0000000000001" y="577.7777777777778"></rect><rect width="44.44444444444444" height="44.44444444444444" x="0" y="622.2222222222223"></rect><rect width="44.44444444444444" height="44.44444444444444" x="44.44444444444444" y="622.2222222222223"></rect><rect width="44.44444444444444" height="44.44444444444444" x="88.88888888888889" y="622.2222222222223"></rect><rect width="44.44444444444444" height="44.44444444444444" x="133.33333333333331" y="622.2222222222223"></rect><rect width="44.44444444444444" height="44.44444444444444" x="177.77777777777777" y="622.2222222222223"></rect><rect width="44.44444444444444" height="44.44444444444444" x="222.22222222222223" y="622.2222222222223"></rect><rect width="44.44444444444444" height="44.44444444444444" x="266.6666666666667" y="622.2222222222223"></rect><rect width="44.44444444444444" height="44.44444444444444" x="311.11111111111114" y="622.2222222222223"></rect><rect width="44.44444444444444" height="44.44444444444444" x="355.5555555555556" y="622.2222222222223"></rect><rect width="44.44444444444444" height="44.44444444444444" x="400.00000000000006" y="622.2222222222223"></rect><rect width="44.44444444444444" height="44.44444444444444" x="444.4444444444445" y="622.2222222222223"></rect><rect width="44.44444444444444" height="44.44444444444444" x="488.88888888888897" y="622.2222222222223"></rect><rect fill="rgb(191 219 254)" width="44.44444444444444" height="44.44444444444444" x="533.3333333333334" y="622.2222222222223"></rect><rect width="44.44444444444444" height="44.44444444444444" x="577.7777777777778" y="622.2222222222223"></rect><rect width="44.44444444444444" height="44.44444444444444" x="622.2222222222223" y="622.2222222222223"></rect><rect width="44.44444444444444" height="44.44444444444444" x="666.6666666666667" y="622.2222222222223"></rect><rect width="44.44444444444444" height="44.44444444444444" x="711.1111111111112" y="622.2222222222223"></rect><rect width="44.44444444444444" height="44.44444444444444" x="755.5555555555557" y="622.2222222222223"></rect><rect width="44.44444444444444" height="44.44444444444444" x="800.0000000000001" y="622.2222222222223"></rect><rect width="44.44444444444444" height="44.44444444444444" x="0" y="666.6666666666667"></rect><rect width="44.44444444444444" height="44.44444444444444" x="44.44444444444444" y="666.6666666666667"></rect><rect width="44.44444444444444" height="44.44444444444444" x="88.88888888888889" y="666.6666666666667"></rect><rect width="44.44444444444444" height="44.44444444444444" x="133.33333333333331" y="666.6666666666667"></rect><rect width="44.44444444444444" height="44.44444444444444" x="177.77777777777777" y="666.6666666666667"></rect><rect fill="rgb(147 197 253)" width="44.44444444444444" height="44.44444444444444" x="222.22222222222223" y="666.6666666666667"></rect><rect width="44.44444444444444" height="44.44444444444444" x="266.6666666666667" y="666.6666666666667"></rect><rect width="44.44444444444444" height="44.44444444444444" x="311.11111111111114" y="666.6666666666667"></rect><rect width="44.44444444444444" height="44.44444444444444" x="355.5555555555556" y="666.6666666666667"></rect><rect width="44.44444444444444" height="44.44444444444444" x="400.00000000000006" y="666.6666666666667"></rect><rect width="44.44444444444444" height="44.44444444444444" x="444.4444444444445" y="666.6666666666667"></rect><rect width="44.44444444444444" height="44.44444444444444" x="488.88888888888897" y="666.6666666666667"></rect><rect width="44.44444444444444" height="44.44444444444444" x="533.3333333333334" y="666.6666666666667"></rect><rect width="44.44444444444444" height="44.44444444444444" x="577.7777777777778" y="666.6666666666667"></rect><rect width="44.44444444444444" height="44.44444444444444" x="622.2222222222223" y="666.6666666666667"></rect><rect width="44.44444444444444" height="44.44444444444444" x="666.6666666666667" y="666.6666666666667"></rect><rect width="44.44444444444444" height="44.44444444444444" x="711.1111111111112" y="666.6666666666667"></rect><rect width="44.44444444444444" height="44.44444444444444" x="755.5555555555557" y="666.6666666666667"></rect><rect width="44.44444444444444" height="44.44444444444444" x="800.0000000000001" y="666.6666666666667"></rect><rect width="44.44444444444444" height="44.44444444444444" x="0" y="711.1111111111112"></rect><rect width="44.44444444444444" height="44.44444444444444" x="44.44444444444444" y="711.1111111111112"></rect><rect width="44.44444444444444" height="44.44444444444444" x="88.88888888888889" y="711.1111111111112"></rect><rect width="44.44444444444444" height="44.44444444444444" x="133.33333333333331" y="711.1111111111112"></rect><rect width="44.44444444444444" height="44.44444444444444" x="177.77777777777777" y="711.1111111111112"></rect><rect width="44.44444444444444" height="44.44444444444444" x="222.22222222222223" y="711.1111111111112"></rect><rect width="44.44444444444444" height="44.44444444444444" x="266.6666666666667" y="711.1111111111112"></rect><rect width="44.44444444444444" height="44.44444444444444" x="311.11111111111114" y="711.1111111111112"></rect><rect width="44.44444444444444" height="44.44444444444444" x="355.5555555555556" y="711.1111111111112"></rect><rect fill="rgb(219 234 254)" width="44.44444444444444" height="44.44444444444444" x="400.00000000000006" y="711.1111111111112"></rect><rect width="44.44444444444444" height="44.44444444444444" x="444.4444444444445" y="711.1111111111112"></rect><rect width="44.44444444444444" height="44.44444444444444" x="488.88888888888897" y="711.1111111111112"></rect><rect width="44.44444444444444" height="44.44444444444444" x="533.3333333333334" y="711.1111111111112"></rect><rect width="44.44444444444444" height="44.44444444444444" x="577.7777777777778" y="711.1111111111112"></rect><rect width="44.44444444444444" height="44.44444444444444" x="622.2222222222223" y="711.1111111111112"></rect><rect width="44.44444444444444" height="44.44444444444444" x="666.6666666666667" y="711.1111111111112"></rect><rect width="44.44444444444444" height="44.44444444444444" x="711.1111111111112" y="711.1111111111112"></rect><rect width="44.44444444444444" height="44.44444444444444" x="755.5555555555557" y="711.1111111111112"></rect><rect width="44.44444444444444" height="44.44444444444444" x="800.0000000000001" y="711.1111111111112"></rect><rect width="44.44444444444444" height="44.44444444444444" x="0" y="755.5555555555557"></rect><rect width="44.44444444444444" height="44.44444444444444" x="44.44444444444444" y="755.5555555555557"></rect><rect width="44.44444444444444" height="44.44444444444444" x="88.88888888888889" y="755.5555555555557"></rect><rect width="44.44444444444444" height="44.44444444444444" x="133.33333333333331" y="755.5555555555557"></rect><rect width="44.44444444444444" height="44.44444444444444" x="177.77777777777777" y="755.5555555555557"></rect><rect width="44.44444444444444" height="44.44444444444444" x="222.22222222222223" y="755.5555555555557"></rect><rect width="44.44444444444444" height="44.44444444444444" x="266.6666666666667" y="755.5555555555557"></rect><rect width="44.44444444444444" height="44.44444444444444" x="311.11111111111114" y="755.5555555555557"></rect><rect width="44.44444444444444" height="44.44444444444444" x="355.5555555555556" y="755.5555555555557"></rect><rect width="44.44444444444444" height="44.44444444444444" x="400.00000000000006" y="755.5555555555557"></rect><rect fill="rgb(191 219 254)" width="44.44444444444444" height="44.44444444444444" x="444.4444444444445" y="755.5555555555557"></rect><rect width="44.44444444444444" height="44.44444444444444" x="488.88888888888897" y="755.5555555555557"></rect><rect width="44.44444444444444" height="44.44444444444444" x="533.3333333333334" y="755.5555555555557"></rect><rect width="44.44444444444444" height="44.44444444444444" x="577.7777777777778" y="755.5555555555557"></rect><rect width="44.44444444444444" height="44.44444444444444" x="622.2222222222223" y="755.5555555555557"></rect><rect width="44.44444444444444" height="44.44444444444444" x="666.6666666666667" y="755.5555555555557"></rect><rect width="44.44444444444444" height="44.44444444444444" x="711.1111111111112" y="755.5555555555557"></rect><rect width="44.44444444444444" height="44.44444444444444" x="755.5555555555557" y="755.5555555555557"></rect><rect width="44.44444444444444" height="44.44444444444444" x="800.0000000000001" y="755.5555555555557"></rect><rect width="44.44444444444444" height="44.44444444444444" x="0" y="800.0000000000001"></rect><rect width="44.44444444444444" height="44.44444444444444" x="44.44444444444444" y="800.0000000000001"></rect><rect width="44.44444444444444" height="44.44444444444444" x="88.88888888888889" y="800.0000000000001"></rect><rect width="44.44444444444444" height="44.44444444444444" x="133.33333333333331" y="800.0000000000001"></rect><rect width="44.44444444444444" height="44.44444444444444" x="177.77777777777777" y="800.0000000000001"></rect><rect width="44.44444444444444" height="44.44444444444444" x="222.22222222222223" y="800.0000000000001"></rect><rect width="44.44444444444444" height="44.44444444444444" x="266.6666666666667" y="800.0000000000001"></rect><rect width="44.44444444444444" height="44.44444444444444" x="311.11111111111114" y="800.0000000000001"></rect><rect width="44.44444444444444" height="44.44444444444444" x="355.5555555555556" y="800.0000000000001"></rect><rect width="44.44444444444444" height="44.44444444444444" x="400.00000000000006" y="800.0000000000001"></rect><rect width="44.44444444444444" height="44.44444444444444" x="444.4444444444445" y="800.0000000000001"></rect><rect width="44.44444444444444" height="44.44444444444444" x="488.88888888888897" y="800.0000000000001"></rect><rect width="44.44444444444444" height="44.44444444444444" x="533.3333333333334" y="800.0000000000001"></rect><rect width="44.44444444444444" height="44.44444444444444" x="577.7777777777778" y="800.0000000000001"></rect><rect width="44.44444444444444" height="44.44444444444444" x="622.2222222222223" y="800.0000000000001"></rect><rect width="44.44444444444444" height="44.44444444444444" x="666.6666666666667" y="800.0000000000001"></rect><rect width="44.44444444444444" height="44.44444444444444" x="711.1111111111112" y="800.0000000000001"></rect><rect width="44.44444444444444" height="44.44444444444444" x="755.5555555555557" y="800.0000000000001"></rect><rect width="44.44444444444444" height="44.44444444444444" x="800.0000000000001" y="800.0000000000001"></rect></g></svg>