<svg height="469" width="2500" xmlns="http://www.w3.org/2000/svg" viewBox="0 0 512 96"><g fill="none"><g fill="#00b67a"><path d="M0 0h96v96H0zM104 0h96v96h-96zM208 0h96v96h-96zM312 0h96v96h-96zM416 0h96v96h-96z"/></g><path d="M48 64.7L62.6 61l6.1 18.8zm33.6-24.3H55.9L48 16.2l-7.9 24.2H14.4l20.8 15-7.9 24.2 20.8-15 12.8-9.2zM152 64.7l14.6-3.7 6.1 18.8zm33.6-24.3h-25.7L152 16.2l-7.9 24.2h-25.7l20.8 15-7.9 24.2 20.8-15 12.8-9.2zM256 64.7l14.6-3.7 6.1 18.8zm33.6-24.3h-25.7L256 16.2l-7.9 24.2h-25.7l20.8 15-7.9 24.2 20.8-15 12.8-9.2zM360 64.7l14.6-3.7 6.1 18.8zm33.6-24.3h-25.7L360 16.2l-7.9 24.2h-25.7l20.8 15-7.9 24.2 20.8-15 12.8-9.2zM464 64.7l14.6-3.7 6.1 18.8zm33.6-24.3h-25.7L464 16.2l-7.9 24.2h-25.7l20.8 15-7.9 24.2 20.8-15 12.8-9.2z" fill="#fff"/></g></svg>