<svg width="400" height="400" viewBox="0 0 400 400" fill="none" xmlns="http://www.w3.org/2000/svg">
<rect width="400" height="400" fill="#252932"/>
<path fill-rule="evenodd" clip-rule="evenodd" d="M212.091 156.827C210.812 155.545 210.094 153.807 210.094 151.996C210.094 150.185 210.812 148.448 212.091 147.166L242.706 116.542C243.341 115.906 244.095 115.401 244.926 115.057C245.756 114.713 246.646 114.536 247.545 114.536C248.444 114.536 249.334 114.713 250.165 115.057C250.995 115.401 251.75 115.906 252.385 116.542L282.991 147.166C283.625 147.8 284.128 148.553 284.472 149.382C284.815 150.211 284.992 151.099 284.992 151.996C284.992 152.893 284.815 153.782 284.472 154.611C284.128 155.439 283.625 156.192 282.991 156.827L252.385 187.451C251.75 188.087 250.995 188.591 250.165 188.936C249.334 189.28 248.444 189.457 247.545 189.457C246.646 189.457 245.756 189.28 244.926 188.936C244.095 188.591 243.341 188.087 242.706 187.451L212.091 156.827ZM195.166 139.911L164.551 109.296C163.913 108.662 163.406 107.908 163.061 107.077C162.715 106.247 162.537 105.356 162.537 104.456C162.537 103.557 162.715 102.666 163.061 101.835C163.406 101.005 163.913 100.251 164.551 99.6166L195.166 69.0017C196.448 67.72 198.187 67 200.001 67C201.814 67 203.553 67.72 204.836 69.0017L235.46 99.6166C236.096 100.252 236.6 101.006 236.945 101.837C237.289 102.667 237.466 103.557 237.466 104.456C237.466 105.355 237.289 106.245 236.945 107.076C236.6 107.906 236.096 108.661 235.46 109.296L204.836 139.911C203.553 141.192 201.814 141.912 200.001 141.912C198.187 141.912 196.448 141.192 195.166 139.911ZM195.166 164.091C196.448 162.809 198.187 162.089 200.001 162.089C201.814 162.089 203.553 162.809 204.836 164.091L235.46 194.706C236.096 195.341 236.6 196.095 236.945 196.926C237.289 197.756 237.466 198.646 237.466 199.545C237.466 200.444 237.289 201.334 236.945 202.165C236.6 202.995 236.096 203.75 235.46 204.385L204.836 234.991C204.201 235.626 203.448 236.131 202.618 236.475C201.788 236.819 200.899 236.996 200.001 236.996C199.103 236.996 198.213 236.819 197.383 236.475C196.554 236.131 195.8 235.626 195.166 234.991L164.551 204.385C163.913 203.751 163.406 202.997 163.061 202.166C162.715 201.336 162.537 200.445 162.537 199.545C162.537 198.646 162.715 197.755 163.061 196.924C163.406 196.094 163.913 195.34 164.551 194.706L195.166 164.091ZM147.626 187.451L117.011 156.836C116.375 156.201 115.87 155.446 115.526 154.616C115.182 153.785 115.005 152.895 115.005 151.996C115.005 151.097 115.182 150.207 115.526 149.377C115.87 148.546 116.375 147.792 117.011 147.157L147.626 116.551C148.26 115.915 149.014 115.411 149.843 115.067C150.673 114.722 151.563 114.545 152.461 114.545C153.359 114.545 154.248 114.722 155.078 115.067C155.908 115.411 156.661 115.915 157.296 116.551L187.911 147.157C189.193 148.441 189.913 150.181 189.913 151.996C189.913 153.811 189.193 155.552 187.911 156.836L157.287 187.451C156.004 188.732 154.265 189.452 152.452 189.452C150.638 189.452 148.908 188.732 147.626 187.451ZM252.385 211.631L282.991 242.246C283.628 242.88 284.133 243.633 284.478 244.463C284.822 245.293 285 246.182 285 247.081C285 247.979 284.822 248.869 284.478 249.699C284.133 250.529 283.628 251.282 282.991 251.916L252.385 282.54C251.102 283.822 249.363 284.542 247.55 284.542C245.736 284.542 243.997 283.822 242.715 282.54L212.091 251.916C210.811 250.632 210.093 248.893 210.093 247.081C210.093 245.268 210.811 243.53 212.091 242.246L242.715 211.631C243.997 210.349 245.736 209.629 247.55 209.629C249.363 209.629 251.102 210.349 252.385 211.631ZM204.836 259.171L235.451 289.786C236.089 290.42 236.595 291.174 236.941 292.004C237.287 292.835 237.464 293.726 237.464 294.625C237.464 295.525 237.287 296.416 236.941 297.246C236.595 298.077 236.089 298.831 235.451 299.465L204.836 330.071C203.553 331.353 201.814 332.073 200.001 332.073C198.187 332.073 196.448 331.353 195.166 330.071L164.551 299.456C163.915 298.821 163.41 298.066 163.066 297.236C162.722 296.405 162.545 295.515 162.545 294.616C162.545 293.717 162.722 292.827 163.066 291.997C163.41 291.166 163.915 290.412 164.551 289.777L195.166 259.162C196.448 257.88 198.187 257.16 200.001 257.16C201.814 257.16 203.553 257.889 204.836 259.171ZM187.911 242.246C189.192 243.528 189.912 245.267 189.912 247.081C189.912 248.894 189.192 250.633 187.911 251.916L157.296 282.54C156.012 283.819 154.273 284.538 152.461 284.538C150.648 284.538 148.909 283.819 147.626 282.54L117.002 251.916C115.72 250.633 115 248.894 115 247.081C115 245.267 115.72 243.528 117.002 242.246L147.626 211.631C148.908 210.349 150.647 209.629 152.461 209.629C154.274 209.629 156.013 210.349 157.296 211.631L187.911 242.246Z" fill="#E6C3A5"/>
</svg>
