<?xml version="1.0" encoding="UTF-8" standalone="no"?>
<!DOCTYPE svg PUBLIC "-//W3C//DTD SVG 1.1//EN" "http://www.w3.org/Graphics/SVG/1.1/DTD/svg11.dtd">
<svg xmlns="http://www.w3.org/2000/svg" version="1.1" viewBox="0.00 0.00 235.00 108.00">
<path fill="#374151" d="
  M 235.00 6.75
  L 235.00 9.12
  Q 234.67 12.95 230.51 12.26
  C 225.60 11.45 220.93 9.15 215.83 8.93
  C 207.96 8.60 199.73 8.33 191.72 8.58
  C 185.32 8.78 178.91 10.81 172.50 12.13
  Q 168.35 12.99 164.64 14.40
  Q 156.43 17.52 148.71 21.36
  Q 138.13 26.63 129.21 35.77
  Q 127.68 37.33 125.90 38.40
  A 1.26 1.26 0.0 0 0 125.35 39.88
  C 126.06 42.04 126.72 44.20 127.94 46.13
  C 129.06 47.88 130.39 49.64 130.80 51.70
  Q 131.50 55.28 132.48 59.06
  C 133.63 63.48 131.92 67.87 130.76 71.97
  A 2.85 2.84 83.9 0 1 129.37 73.70
  Q 127.04 74.95 125.06 76.80
  C 122.93 78.79 115.81 78.05 113.01 77.76
  C 111.09 77.57 106.49 74.63 105.55 72.93
  C 104.39 70.80 102.54 69.66 102.24 67.05
  C 101.84 63.64 101.60 59.81 103.35 56.80
  C 104.96 54.03 105.67 50.84 107.77 48.43
  Q 109.59 46.33 111.00 44.10
  A 1.35 1.35 0.0 0 0 110.49 42.18
  C 103.87 38.74 94.12 39.82 86.50 41.55
  C 83.29 42.28 80.96 44.29 77.86 45.27
  Q 76.02 45.85 74.19 46.94
  Q 64.15 52.92 61.59 55.15
  Q 57.84 58.40 53.99 61.21
  Q 49.35 64.59 46.38 67.35
  Q 40.70 72.65 34.89 78.17
  Q 30.17 82.65 27.10 86.13
  Q 26.74 86.54 26.21 86.68
  Q 24.02 87.23 21.88 87.05
  A 2.15 2.14 -10.9 0 1 20.14 85.88
  C 18.99 83.59 19.53 80.69 21.36 78.91
  Q 34.90 65.72 48.06 55.05
  Q 53.68 50.50 60.04 46.39
  Q 61.88 45.19 63.83 44.72
  C 65.79 44.25 67.02 42.74 68.88 42.03
  C 72.30 40.73 75.42 38.65 78.88 37.51
  C 80.71 36.90 82.58 36.49 84.22 35.47
  Q 86.91 33.79 89.99 33.57
  Q 100.92 32.80 111.00 33.24
  Q 113.28 33.35 115.42 34.53
  A 1.45 1.44 49.2 0 0 116.62 34.62
  Q 119.69 33.50 121.77 31.19
  Q 124.99 27.61 131.88 22.74
  C 134.00 21.23 136.25 20.24 138.28 18.75
  C 140.76 16.93 143.43 15.80 146.04 14.24
  C 149.01 12.47 152.38 11.72 155.40 10.01
  C 157.54 8.79 159.80 8.42 162.14 7.80
  C 164.34 7.22 166.37 6.15 168.51 5.35
  C 171.69 4.17 175.38 4.16 178.77 3.70
  Q 181.63 3.31 184.61 2.43
  Q 188.83 1.18 194.59 0.84
  Q 204.52 0.24 214.58 1.43
  Q 215.69 1.56 223.26 3.26
  Q 227.87 4.30 231.99 4.50
  Q 234.59 4.63 235.00 6.75
  Z
  M 123.91 57.50
  C 122.66 55.53 122.40 53.21 121.84 50.99
  Q 121.31 48.88 119.12 48.85
  C 117.09 48.82 115.40 49.32 114.82 51.41
  Q 113.95 54.60 112.10 57.26
  C 110.46 59.63 110.37 62.43 110.62 65.23
  C 110.76 66.78 110.90 68.56 112.55 69.26
  C 115.39 70.47 120.12 71.67 122.14 69.05
  C 125.08 65.23 127.00 62.37 123.91 57.50
  Z"
/>
<path fill="#374151" d="
  M 12.82 92.86
  A 0.56 0.56 0.0 0 0 13.41 93.28
  Q 22.17 92.55 31.48 90.53
  C 35.87 89.58 36.51 92.23 39.28 94.42
  Q 40.97 95.75 40.30 97.69
  Q 40.11 98.24 39.55 98.43
  Q 37.32 99.19 35.18 99.19
  Q 22.70 99.17 10.34 100.48
  C 7.60 100.77 3.70 100.17 3.32 96.79
  Q 2.57 90.10 5.16 84.06
  Q 7.16 79.39 7.83 70.92
  A 4.75 4.74 84.1 0 1 11.22 66.74
  L 11.82 66.57
  Q 15.44 65.50 15.92 69.25
  Q 16.63 74.91 15.61 80.05
  Q 15.31 81.61 14.29 82.97
  C 12.22 85.71 11.97 89.65 12.82 92.86
  Z"
/>
<path fill="#3b82f6" d="
  M 144.63 76.03
  C 148.47 79.01 155.39 77.44 155.29 83.93
  C 155.22 88.48 148.08 86.11 146.12 84.70
  C 142.09 81.80 135.97 82.72 134.75 76.66
  Q 134.42 74.99 136.07 74.55
  Q 141.01 73.23 144.63 76.03
  Z"
/>
<path fill="#3b82f6" d="
  M 92.18 80.20
  C 93.77 77.57 96.60 75.32 99.75 75.15
  Q 100.28 75.12 100.59 75.54
  Q 102.17 77.66 102.05 80.12
  Q 102.02 80.71 101.58 81.10
  C 100.72 81.87 99.81 82.41 99.02 83.29
  Q 96.08 86.54 92.83 89.59
  C 91.19 91.13 88.43 90.73 86.66 89.79
  A 1.84 1.83 24.8 0 1 85.81 87.51
  Q 87.43 83.38 91.42 80.96
  A 2.27 2.15 -1.5 0 0 92.18 80.20
  Z"
/>
<rect fill="#3b82f6" x="-3.93" y="-10.37" transform="translate(118.73,96.39) rotate(-0.4)" width="7.86" height="20.74" rx="3.41"/>
</svg>
