<?xml version="1.0" encoding="UTF-8" standalone="no"?>
<svg xmlns="http://www.w3.org/2000/svg" version="1.2" baseProfile="tiny" viewBox="0.00 0.00 317.00 319.00">
<g stroke-width="0.90" fill="none" stroke-linecap="butt">
<path stroke="#ffa495" vector-effect="non-scaling-stroke" d="
  M 123.99 78.45
  C 83.23 96.53 61.06 142.28 74.42 185.78
  C 92.38 244.26 161.25 267.44 211.49 232.39
  A 0.64 0.63 -32.8 0 0 211.68 231.55
  L 192.93 199.09
  A 0.40 0.40 0.0 0 0 192.33 198.98
  C 174.48 213.75 149.47 215.05 130.71 201.98
  C 103.84 183.26 100.97 145.67 124.49 123.10
  Q 138.52 109.63 158.80 109.00
  A 1.27 1.27 0.0 0 0 159.92 108.26
  Q 164.94 97.38 171.58 83.81
  Q 174.14 78.59 176.42 73.17
  Q 176.65 72.60 176.05 72.50
  Q 147.86 67.86 123.99 78.45"
/>
<path stroke="#ffa495" vector-effect="non-scaling-stroke" d="
  M 199.55 123.64
  Q 198.69 123.64 198.93 122.82
  Q 200.24 118.24 204.29 116.03
  C 215.30 110.04 228.54 105.30 224.98 89.48
  C 223.23 81.75 213.94 77.62 206.71 77.42
  Q 192.88 77.02 185.68 88.76
  Q 185.31 89.37 185.81 89.88
  L 192.34 96.47
  A 0.58 0.57 37.2 0 0 193.25 96.35
  Q 197.93 88.11 206.01 88.13
  C 210.55 88.13 214.55 90.46 213.64 95.58
  C 212.82 100.16 204.96 103.38 200.70 105.58
  C 189.37 111.41 185.17 121.15 185.35 133.58
  Q 185.36 134.45 186.24 134.45
  L 224.67 134.45
  Q 225.29 134.45 225.30 133.83
  L 225.42 124.13
  Q 225.43 123.58 224.88 123.59
  L 199.55 123.64"
/>
<path stroke="#ffa495" vector-effect="non-scaling-stroke" d="
  M 199.69 185.41
  A 0.56 0.56 0.0 0 1 200.17 185.69
  L 221.49 222.63
  A 0.56 0.56 0.0 0 0 222.46 222.63
  L 243.73 185.77
  A 0.56 0.56 0.0 0 0 243.73 185.21
  L 222.04 147.60
  A 0.56 0.56 0.0 0 0 221.56 147.32
  L 178.22 147.36
  A 0.56 0.56 0.0 0 0 177.74 147.64
  L 156.38 184.64
  A 0.56 0.56 0.0 0 0 156.86 185.48
  L 199.69 185.41"
/>
</g>
<path fill="#ff492c" d="
  M 314.08 159.99
  A 156.08 156.08 0.0 0 1 158.00 316.07
  A 156.08 156.08 0.0 0 1 1.92 159.99
  A 156.08 156.08 0.0 0 1 158.00 3.91
  A 156.08 156.08 0.0 0 1 314.08 159.99
  Z
  M 123.99 78.45
  C 83.23 96.53 61.06 142.28 74.42 185.78
  C 92.38 244.26 161.25 267.44 211.49 232.39
  A 0.64 0.63 -32.8 0 0 211.68 231.55
  L 192.93 199.09
  A 0.40 0.40 0.0 0 0 192.33 198.98
  C 174.48 213.75 149.47 215.05 130.71 201.98
  C 103.84 183.26 100.97 145.67 124.49 123.10
  Q 138.52 109.63 158.80 109.00
  A 1.27 1.27 0.0 0 0 159.92 108.26
  Q 164.94 97.38 171.58 83.81
  Q 174.14 78.59 176.42 73.17
  Q 176.65 72.60 176.05 72.50
  Q 147.86 67.86 123.99 78.45
  Z
  M 199.55 123.64
  Q 198.69 123.64 198.93 122.82
  Q 200.24 118.24 204.29 116.03
  C 215.30 110.04 228.54 105.30 224.98 89.48
  C 223.23 81.75 213.94 77.62 206.71 77.42
  Q 192.88 77.02 185.68 88.76
  Q 185.31 89.37 185.81 89.88
  L 192.34 96.47
  A 0.58 0.57 37.2 0 0 193.25 96.35
  Q 197.93 88.11 206.01 88.13
  C 210.55 88.13 214.55 90.46 213.64 95.58
  C 212.82 100.16 204.96 103.38 200.70 105.58
  C 189.37 111.41 185.17 121.15 185.35 133.58
  Q 185.36 134.45 186.24 134.45
  L 224.67 134.45
  Q 225.29 134.45 225.30 133.83
  L 225.42 124.13
  Q 225.43 123.58 224.88 123.59
  L 199.55 123.64
  Z
  M 199.69 185.41
  A 0.56 0.56 0.0 0 1 200.17 185.69
  L 221.49 222.63
  A 0.56 0.56 0.0 0 0 222.46 222.63
  L 243.73 185.77
  A 0.56 0.56 0.0 0 0 243.73 185.21
  L 222.04 147.60
  A 0.56 0.56 0.0 0 0 221.56 147.32
  L 178.22 147.36
  A 0.56 0.56 0.0 0 0 177.74 147.64
  L 156.38 184.64
  A 0.56 0.56 0.0 0 0 156.86 185.48
  L 199.69 185.41
  Z"
/>
<path fill="#fefefe" d="
  M 123.99 78.45
  Q 147.86 67.86 176.05 72.50
  Q 176.65 72.60 176.42 73.17
  Q 174.14 78.59 171.58 83.81
  Q 164.94 97.38 159.92 108.26
  A 1.27 1.27 0.0 0 1 158.80 109.00
  Q 138.52 109.63 124.49 123.10
  C 100.97 145.67 103.84 183.26 130.71 201.98
  C 149.47 215.05 174.48 213.75 192.33 198.98
  A 0.40 0.40 0.0 0 1 192.93 199.09
  L 211.68 231.55
  A 0.64 0.63 -32.8 0 1 211.49 232.39
  C 161.25 267.44 92.38 244.26 74.42 185.78
  C 61.06 142.28 83.23 96.53 123.99 78.45
  Z"
/>
<path fill="#fefefe" d="
  M 199.55 123.64
  L 224.88 123.59
  Q 225.43 123.58 225.42 124.13
  L 225.30 133.83
  Q 225.29 134.45 224.67 134.45
  L 186.24 134.45
  Q 185.36 134.45 185.35 133.58
  C 185.17 121.15 189.37 111.41 200.70 105.58
  C 204.96 103.38 212.82 100.16 213.64 95.58
  C 214.55 90.46 210.55 88.13 206.01 88.13
  Q 197.93 88.11 193.25 96.35
  A 0.58 0.57 37.2 0 1 192.34 96.47
  L 185.81 89.88
  Q 185.31 89.37 185.68 88.76
  Q 192.88 77.02 206.71 77.42
  C 213.94 77.62 223.23 81.75 224.98 89.48
  C 228.54 105.30 215.30 110.04 204.29 116.03
  Q 200.24 118.24 198.93 122.82
  Q 198.69 123.64 199.55 123.64
  Z"
/>
<path fill="#fefefe" d="
  M 199.69 185.41
  L 156.86 185.48
  A 0.56 0.56 0.0 0 1 156.38 184.64
  L 177.74 147.64
  A 0.56 0.56 0.0 0 1 178.22 147.36
  L 221.56 147.32
  A 0.56 0.56 0.0 0 1 222.04 147.60
  L 243.73 185.21
  A 0.56 0.56 0.0 0 1 243.73 185.77
  L 222.46 222.63
  A 0.56 0.56 0.0 0 1 221.49 222.63
  L 200.17 185.69
  A 0.56 0.56 0.0 0 0 199.69 185.41
  Z"
/>
</svg>
