<?xml version="1.0" encoding="UTF-8" standalone="no"?>
<svg xmlns="http://www.w3.org/2000/svg" version="1.2" baseProfile="tiny" viewBox="0.00 0.00 866.00 263.00">
<rect fill="#e5c3a4" x="-27.37" y="-27.32" transform="translate(83.30,38.81) rotate(-45.0)" width="54.74" height="54.64" rx="6.72"/>
<path fill="#e5c3a4" d="
  M 42.14 50.39
  L 71.76 80.09
  A 6.19 6.19 0.0 0 1 71.78 88.81
  L 42.19 118.78
  A 6.19 6.19 0.0 0 1 33.39 118.79
  L 3.75 88.82
  A 6.19 6.19 0.0 0 1 3.77 80.10
  L 33.38 50.39
  A 6.19 6.19 0.0 0 1 42.14 50.39
  Z"
/>
<path fill="#e5c3a4" d="
  M 162.74 89.36
  L 133.63 118.56
  A 6.54 6.54 0.0 0 1 124.37 118.57
  L 94.96 89.15
  A 6.54 6.54 0.0 0 1 94.96 79.91
  L 124.37 50.45
  A 6.54 6.54 0.0 0 1 133.67 50.49
  L 162.78 80.16
  A 6.54 6.54 0.0 0 1 162.74 89.36
  Z"
/>
<path fill="white" d="
  M 322.33 168.31
  C 329.66 163.14 330.18 152.95 324.16 146.78
  C 320.70 143.23 315.86 140.98 311.15 139.37
  Q 304.91 137.25 298.96 135.15
  C 292.84 132.99 287.07 130.13 282.10 125.95
  Q 276.14 120.94 273.38 114.99
  C 269.42 106.45 270.69 95.25 276.43 87.56
  Q 280.68 81.86 287.36 78.38
  C 302.39 70.55 323.27 71.67 336.00 83.29
  C 342.42 89.15 346.21 96.67 346.63 105.59
  A 1.34 1.34 0.0 0 1 345.29 107.00
  L 329.52 107.00
  A 0.86 0.85 74.3 0 1 328.79 106.59
  Q 328.26 105.71 328.07 104.62
  Q 325.89 91.54 314.22 89.01
  Q 309.48 87.99 304.15 88.72
  C 296.07 89.82 289.34 95.50 289.48 104.09
  C 289.56 109.25 292.59 112.95 296.85 115.65
  Q 300.75 118.13 304.35 119.33
  Q 312.48 122.05 319.86 124.65
  Q 327.90 127.49 334.90 132.88
  Q 345.86 141.34 346.80 154.54
  C 347.48 164.01 343.80 172.51 336.57 178.16
  Q 329.53 183.66 320.63 185.46
  Q 301.52 189.31 285.79 180.96
  Q 271.73 173.49 268.20 157.71
  C 267.90 156.38 268.19 155.10 267.80 153.84
  A 1.25 1.25 0.0 0 1 268.99 152.21
  L 284.75 152.22
  Q 285.89 152.22 286.00 153.34
  C 287.54 167.96 299.94 173.44 313.23 171.78
  Q 318.28 171.15 322.33 168.31
  Z"
/>
<path fill="white" d="
  M 393.76 91.48
  L 393.79 120.26
  A 1.22 1.22 0.0 0 0 395.01 121.48
  L 437.79 121.45
  A 1.22 1.22 0.0 0 1 439.02 122.68
  L 438.97 134.78
  A 1.22 1.22 0.0 0 1 437.75 136.00
  L 395.20 135.98
  A 1.22 1.22 0.0 0 0 393.98 137.20
  L 393.98 169.25
  A 1.22 1.22 0.0 0 0 395.20 170.47
  L 445.74 170.46
  A 1.22 1.22 0.0 0 1 446.96 171.68
  L 446.96 184.31
  A 1.22 1.22 0.0 0 1 445.74 185.53
  L 376.95 185.54
  A 1.22 1.22 0.0 0 1 375.73 184.32
  L 375.72 76.44
  A 1.22 1.22 0.0 0 1 376.94 75.22
  L 444.99 75.21
  A 1.22 1.22 0.0 0 1 446.21 76.43
  L 446.27 89.05
  A 1.22 1.22 0.0 0 1 445.04 90.28
  L 394.98 90.26
  A 1.22 1.22 0.0 0 0 393.76 91.48
  Z"
/>
<path fill="white" d="
  M 521.99 91.37
  L 522.00 184.41
  A 1.11 1.11 0.0 0 1 520.89 185.52
  L 505.10 185.55
  A 1.11 1.11 0.0 0 1 503.99 184.44
  L 504.01 91.38
  A 1.11 1.11 0.0 0 0 502.90 90.27
  L 471.63 90.24
  A 1.11 1.11 0.0 0 1 470.52 89.14
  L 470.45 76.34
  A 1.11 1.11 0.0 0 1 471.56 75.22
  L 554.72 75.20
  A 1.11 1.11 0.0 0 1 555.83 76.32
  L 555.73 89.18
  A 1.11 1.11 0.0 0 1 554.62 90.28
  L 523.10 90.26
  A 1.11 1.11 0.0 0 0 521.99 91.37
  Z"
/>
<path fill="white" d="
  M 633.67 159.77
  L 601.43 159.78
  A 1.39 1.39 0.0 0 0 600.10 160.78
  L 593.26 184.26
  A 1.39 1.39 0.0 0 1 591.93 185.26
  L 576.22 185.28
  A 1.39 1.39 0.0 0 1 574.90 183.46
  L 609.65 76.15
  A 1.39 1.39 0.0 0 1 610.97 75.19
  L 624.89 75.22
  A 1.39 1.39 0.0 0 1 626.22 76.19
  L 660.23 183.45
  A 1.39 1.39 0.0 0 1 658.90 185.26
  L 643.15 185.28
  A 1.39 1.39 0.0 0 1 641.81 184.28
  L 635.01 160.77
  A 1.39 1.39 0.0 0 0 633.67 159.77
  Z
  M 605.17 143.81
  A 0.31 0.31 0.0 0 0 605.47 144.21
  L 629.69 144.21
  A 0.31 0.31 0.0 0 0 629.99 143.81
  L 617.88 102.27
  A 0.31 0.31 0.0 0 0 617.28 102.27
  L 605.17 143.81
  Z"
/>
<path fill="white" d="
  M 708.00 143.70
  L 708.00 184.01
  A 1.27 1.27 0.0 0 1 706.73 185.28
  L 691.25 185.28
  A 1.53 1.53 0.0 0 1 689.72 183.75
  L 689.72 76.74
  A 1.53 1.53 0.0 0 1 691.25 75.21
  Q 710.11 75.21 728.48 75.21
  C 738.61 75.22 750.83 79.82 757.40 87.94
  Q 762.97 94.82 764.23 103.73
  C 766.35 118.79 760.03 132.55 745.96 139.01
  C 739.72 141.88 733.02 143.13 725.91 143.04
  Q 716.87 142.94 708.68 143.01
  Q 708.00 143.02 708.00 143.70
  Z
  M 707.97 90.26
  L 708.03 128.08
  A 0.43 0.43 0.0 0 0 708.46 128.51
  L 727.31 128.48
  A 18.72 17.86 -0.1 0 0 746.00 110.59
  L 746.00 107.63
  A 18.72 17.86 -0.1 0 0 727.25 89.80
  L 708.40 89.83
  A 0.43 0.43 0.0 0 0 707.97 90.26
  Z"
/>
<path fill="white" d="
  M 807.78 143.70
  L 807.79 183.24
  A 2.04 2.03 -90.0 0 1 805.76 185.28
  L 791.49 185.28
  A 2.04 2.04 0.0 0 1 789.45 183.24
  L 789.46 77.30
  A 2.16 2.16 0.0 0 1 791.65 75.14
  Q 806.84 75.37 821.85 75.13
  Q 832.21 74.97 838.17 76.49
  C 852.08 80.02 862.74 90.28 864.07 104.90
  Q 866.20 128.28 846.49 138.67
  Q 842.60 140.71 836.14 142.12
  Q 831.43 143.14 825.57 143.05
  Q 817.07 142.92 808.46 143.02
  Q 807.78 143.03 807.78 143.70
  Z
  M 807.81 90.50
  L 807.75 127.78
  A 0.70 0.70 0.0 0 0 808.45 128.48
  L 826.99 128.51
  A 18.94 18.13 0.1 0 0 845.96 110.41
  L 845.96 107.99
  A 18.94 18.13 0.1 0 0 827.05 89.83
  L 808.51 89.80
  A 0.70 0.70 0.0 0 0 807.81 90.50
  Z"
/>
<rect fill="#e5c3a4" x="-27.24" y="-27.35" transform="translate(83.32,130.34) rotate(45.0)" width="54.48" height="54.70" rx="6.58"/>
<rect fill="#e5c3a4" x="-27.29" y="-27.36" transform="translate(37.91,175.94) rotate(44.8)" width="54.58" height="54.72" rx="6.84"/>
<rect fill="#e5c3a4" x="-27.22" y="-27.36" transform="translate(128.91,176.11) rotate(-44.9)" width="54.44" height="54.72" rx="6.62"/>
<path fill="#e5c3a4" d="
  M 78.54 255.70
  L 49.50 226.17
  A 6.68 6.68 0.0 0 1 49.54 216.77
  L 78.52 187.76
  A 6.68 6.68 0.0 0 1 87.98 187.77
  L 117.17 217.06
  A 6.68 6.68 0.0 0 1 117.17 226.49
  L 88.03 255.73
  A 6.68 6.68 0.0 0 1 78.54 255.70
  Z"
/>
</svg>
