<?xml version="1.0" encoding="utf-8"?>
<!-- Generator: Adobe Illustrator 19.2.1, SVG Export Plug-In . SVG Version: 6.00 Build 0)  -->
<svg version="1.1" id="layer" xmlns="http://www.w3.org/2000/svg" xmlns:xlink="http://www.w3.org/1999/xlink" x="0px" y="0px"
	 viewBox="0 0 652 652" style="enable-background:new 0 0 652 652;" xml:space="preserve">
<style type="text/css">
	.st0{fill:#E6C3A5;}
</style>
<g>
	<g>
		<path class="st0" d="M86.6,292.4l20.4,20.5c1.8,1.8,4.7,1.8,6.4,0l20.4-20.5c1.8-1.8,1.8-4.7,0-6.5l-20.4-20.5
			c-1.8-1.8-4.7-1.8-6.4,0L86.6,286C84.8,287.7,84.8,290.6,86.6,292.4 M75.3,281.1c1.8,1.8,4.7,1.8,6.4,0l20.4-20.5
			c1.8-1.8,1.8-4.7,0-6.5l-20.4-20.5c-1.8-1.8-4.7-1.8-6.4,0l-20.4,20.5c-1.8,1.8-1.8,4.7,0,6.5L75.3,281.1z M75.3,297.3l-20.4,20.5
			c-1.8,1.8-1.8,4.7,0,6.5l20.4,20.5c1.8,1.8,4.7,1.8,6.4,0l20.4-20.5c1.8-1.8,1.8-4.7,0-6.5l-20.4-20.5
			C80,295.5,77.1,295.5,75.3,297.3 M43.6,312.9c1.8,1.8,4.7,1.8,6.4,0l20.4-20.5c1.8-1.8,1.8-4.7,0-6.5l-20.4-20.5
			c-1.8-1.8-4.7-1.8-6.4,0l-20.4,20.5c-1.8,1.8-1.8,4.7,0,6.5L43.6,312.9z M113.4,329.1c-1.8-1.8-4.7-1.8-6.4,0l-20.4,20.5
			c-1.8,1.8-1.8,4.7,0,6.5l20.4,20.5c1.8,1.8,4.7,1.8,6.4,0l20.4-20.5c1.8-1.8,1.8-4.7,0-6.5L113.4,329.1z M81.7,360.8
			c-1.8-1.8-4.7-1.8-6.4,0l-20.4,20.5c-1.8,1.8-1.8,4.7,0,6.5l20.4,20.5c1.8,1.8,4.7,1.8,6.4,0l20.4-20.5c1.8-1.8,1.8-4.7,0-6.5
			L81.7,360.8z M70.5,349.5l-20.4-20.5c-1.8-1.8-4.7-1.8-6.4,0l-20.4,20.5c-1.8,1.8-1.8,4.7,0,6.5l20.4,20.5c1.8,1.8,4.7,1.8,6.4,0
			L70.5,356C72.2,354.2,72.2,351.3,70.5,349.5"/>
	</g>
	<path d="M249,339.6c0-1.8-0.4-3.4-1.1-4.8c-0.8-1.4-1.8-2.6-3.2-3.7c-1.4-1.1-3-2-4.9-2.8c-1.9-0.8-4-1.5-6.2-2.2
		c-3-0.9-6-2-8.9-3.3c-2.9-1.3-5.5-2.9-7.8-4.8c-2.3-1.9-4.1-4.1-5.6-6.6c-1.4-2.5-2.1-5.4-2.1-8.7c0-3.3,0.7-6.3,2.1-8.9
		c1.4-2.6,3.3-4.8,5.7-6.7c2.4-1.8,5.1-3.2,8.3-4.2c3.1-1,6.4-1.5,9.9-1.5c3.7,0,7.1,0.6,10.3,1.7c3.2,1.1,6,2.7,8.4,4.8
		c2.4,2.1,4.3,4.5,5.7,7.4c1.3,2.6,2,5.4,2.1,8.5c0,0.6-0.4,1-1,1h-10.7c-0.5,0-0.9-0.4-1-0.9c-0.2-1.6-0.6-3.1-1.1-4.4
		c-0.6-1.6-1.6-3-2.7-4.1c-1.2-1.2-2.6-2.1-4.3-2.7c-1.7-0.6-3.6-0.9-5.8-0.9c-1.9,0-3.6,0.2-5.2,0.7c-1.6,0.5-3,1.2-4.2,2.2
		c-1.2,0.9-2.1,2.1-2.8,3.4c-0.7,1.3-1,2.8-1,4.5c0,1.8,0.5,3.3,1.4,4.7c0.9,1.3,2.1,2.5,3.6,3.4c1.5,1,3.2,1.8,5.1,2.6
		c1.9,0.7,3.9,1.4,6,2c3.2,0.9,6.2,2.1,9.1,3.5c2.9,1.4,5.5,3.1,7.7,5c2.2,1.9,3.9,4.2,5.2,6.8c1.3,2.6,1.9,5.5,1.9,8.8
		c0,3.4-0.7,6.4-2.2,9c-1.4,2.6-3.4,4.8-5.8,6.5c-2.4,1.8-5.2,3.1-8.4,4c-3.2,0.9-6.5,1.3-10,1.3c-2.3,0-4.7-0.2-7-0.7
		c-2.3-0.5-4.5-1.1-6.6-2c-2.1-0.9-4.1-2-5.9-3.4c-1.8-1.3-3.4-2.9-4.7-4.7c-1.3-1.8-2.4-3.8-3.2-6c-0.7-1.9-1.1-4-1.2-6.2
		c0-0.6,0.4-1,1-1h10.7c0.5,0,0.9,0.4,0.9,0.9c0.2,2,0.7,3.7,1.4,5.2c0.8,1.7,2,3.2,3.4,4.3c1.4,1.1,3,2,4.9,2.6
		c1.9,0.6,3.9,0.9,6.2,0.9c1.9,0,3.7-0.2,5.3-0.7c1.6-0.5,3.1-1.1,4.3-2c1.2-0.9,2.2-2,2.9-3.3C248.7,342.8,249,341.3,249,339.6
		L249,339.6z M325.1,324.9h-30.4V349h35.8c0.5,0,1,0.4,1,1v8.4c0,0.5-0.4,1-1,1H283c-0.5,0-1-0.4-1-1v-74.7c0-0.5,0.4-1,1-1H330
		c0.5,0,1,0.4,1,1v8.5c0,0.5-0.4,1-1,1h-35.4v21.6h30.4c0.5,0,1,0.4,1,1v8.3C326,324.5,325.6,324.9,325.1,324.9L325.1,324.9z
		 M406.3,293.1h-22.5v65.3c0,0.5-0.4,1-1,1h-10.6c-0.5,0-1-0.4-1-1v-65.3H349c-0.5,0-1-0.4-1-1v-8.5c0-0.5,0.4-1,1-1h57.3
		c0.5,0,1,0.4,1,1v8.5C407.3,292.7,406.9,293.1,406.3,293.1L406.3,293.1z M462.2,341.5h-23.9l-5,17.1c-0.1,0.4-0.5,0.7-0.9,0.7
		h-10.9c-0.7,0-1.1-0.6-0.9-1.3l24.2-74.7c0.1-0.4,0.5-0.7,0.9-0.7h9.6c0.4,0,0.8,0.3,0.9,0.7l23.7,74.7c0.2,0.6-0.3,1.3-0.9,1.3
		h-10.9c-0.4,0-0.8-0.3-0.9-0.7L462.2,341.5z M441.5,330.7h17.5l-8.7-30.1L441.5,330.7z M513.1,329.9v28.4c0,0.5-0.4,1-1,1h-10.6
		c-0.5,0-1-0.4-1-1v-74.7c0-0.5,0.4-1,1-1h24.6c3.8,0,7.3,0.6,10.6,1.7c3.2,1.1,6,2.7,8.4,4.7c2.3,2.1,4.2,4.5,5.5,7.5
		c1.3,2.9,2,6.2,2,9.9c0,3.6-0.7,6.8-2,9.7c-1.3,2.9-3.1,5.3-5.5,7.4c-2.3,2-5.1,3.6-8.4,4.7c-3.2,1.1-6.8,1.6-10.6,1.7H513.1z
		 M513.1,319.7h13c2.1,0,4-0.3,5.7-1c1.7-0.6,3.1-1.6,4.3-2.7c1.2-1.2,2.1-2.5,2.7-4.2c0.6-1.6,0.9-3.4,0.9-5.3c0-2-0.3-3.8-0.9-5.5
		c-0.6-1.7-1.5-3.1-2.7-4.3c-1.2-1.2-2.6-2.1-4.3-2.8c-1.7-0.7-3.6-1-5.7-1.1h-13V319.7z M582.6,329.9v27.9c0,0.8-0.7,1.5-1.5,1.5
		h-9.7c-0.8,0-1.5-0.7-1.5-1.5v-73.7c0-0.8,0.6-1.5,1.5-1.5h24.1c3.8,0,7.3,0.6,10.6,1.7c3.2,1.1,6,2.7,8.4,4.7
		c2.3,2.1,4.2,4.5,5.5,7.5c1.3,2.9,2,6.2,2,9.9c0,3.6-0.7,6.8-2,9.7c-1.3,2.9-3.1,5.3-5.5,7.4c-2.3,2-5.1,3.6-8.4,4.7
		c-3.2,1.1-6.8,1.6-10.6,1.7H582.6z M582.6,319.7h13c2.1,0,4-0.3,5.7-1c1.7-0.6,3.1-1.6,4.3-2.7c1.2-1.2,2.1-2.5,2.7-4.2
		c0.6-1.6,0.9-3.4,0.9-5.3c0-2-0.3-3.8-0.9-5.5c-0.6-1.7-1.5-3.1-2.7-4.3c-1.2-1.2-2.6-2.1-4.3-2.8c-1.7-0.7-3.6-1-5.7-1.1h-13
		V319.7z"/>
</g>
</svg>
