<svg width="76" height="12" fill="none" xmlns="http://www.w3.org/2000/svg"><path d="M27.97 4.53a.64.64 0 00-.55-.45l-3.46-.33L22.59.4A.64.64 0 0022 0a.64.64 0 00-.59.4l-1.37 3.35-3.46.33a.65.65 0 00-.55.45c-.08.26 0 .54.19.71l2.62 2.4-.78 3.55c-.05.26.04.53.25.68a.62.62 0 00.7.04L22 10.04l2.99 1.87c.22.13.5.12.7-.04.2-.15.3-.42.25-.68l-.78-3.55 2.62-2.4c.2-.17.27-.45.19-.7zM11.97 4.53a.64.64 0 00-.55-.45l-3.46-.33L6.59.4A.64.64 0 006 0a.64.64 0 00-.59.4L4.04 3.75l-3.46.33a.65.65 0 00-.55.45c-.08.26 0 .54.19.71l2.62 2.4-.78 3.55c-.05.26.04.53.25.68a.62.62 0 00.7.04L6 10.04l2.99 1.87c.22.13.5.12.7-.04.2-.15.3-.42.25-.68l-.78-3.55 2.62-2.4c.2-.17.27-.45.19-.7zM43.97 4.53a.64.64 0 00-.55-.45l-3.46-.33L38.59.4A.64.64 0 0038 0a.64.64 0 00-.59.4l-1.37 3.35-3.46.33a.65.65 0 00-.55.45c-.08.26 0 .54.19.71l2.62 2.4-.78 3.55c-.05.26.04.53.25.68a.62.62 0 00.7.04L38 10.04l2.99 1.87c.22.13.5.12.7-.04.2-.15.3-.42.25-.68l-.78-3.55 2.62-2.4c.2-.17.27-.45.19-.7zM59.97 4.53a.64.64 0 00-.55-.45l-3.46-.33L54.59.4A.64.64 0 0054 0a.64.64 0 00-.59.4l-1.37 3.35-3.46.33a.65.65 0 00-.55.45c-.08.26 0 .54.19.71l2.62 2.4-.78 3.55c-.05.26.04.53.25.68a.62.62 0 00.7.04L54 10.04l2.99 1.87c.22.13.5.12.7-.04.2-.15.3-.42.25-.68l-.78-3.55 2.62-2.4c.2-.17.27-.45.19-.7zM75.97 4.53a.64.64 0 00-.55-.45l-3.46-.33L70.59.4A.64.64 0 0070 0a.64.64 0 00-.59.4l-1.37 3.35-3.46.33a.65.65 0 00-.55.45c-.08.26 0 .54.19.71l2.62 2.4-.78 3.55c-.05.26.04.53.25.68a.62.62 0 00.7.04L70 10.04l2.99 1.87c.22.13.5.12.7-.04.2-.15.3-.42.25-.68l-.78-3.55 2.62-2.4c.2-.17.27-.45.19-.7z" fill="#FFBD02"/></svg>