<svg width="519" height="9" viewBox="0 0 519 9" fill="none" xmlns="http://www.w3.org/2000/svg">
<path fill-rule="evenodd" clip-rule="evenodd" d="M292.864 4.50703C293.146 4.31758 293.512 4.30693 293.804 4.48058C296.296 5.96303 299.563 7.32198 303.221 7.82612C307.705 8.44399 312.769 7.77127 317.628 4.50587C317.91 4.31638 318.276 4.30576 318.568 4.47948C321.06 5.96274 324.329 7.32272 327.989 7.8271C332.473 8.44501 337.537 7.77216 342.396 4.50621C342.678 4.3167 343.044 4.30607 343.336 4.47979C345.829 5.96293 349.097 7.32275 352.756 7.8271C357.24 8.44503 362.305 7.77211 367.164 4.50585C367.446 4.31634 367.813 4.30569 368.105 4.4794C370.597 5.96231 373.865 7.32184 377.524 7.82612C382.007 8.4439 387.07 7.77145 391.928 4.5072C392.21 4.31778 392.576 4.30716 392.868 4.48081C395.36 5.96355 398.628 7.32287 402.287 7.8271C406.771 8.44508 411.836 7.772 416.696 4.50503C416.977 4.31546 417.344 4.30483 417.636 4.4786C420.129 5.9622 423.398 7.32262 427.058 7.8271C431.542 8.44503 436.607 7.77211 441.466 4.50585C441.748 4.31634 442.114 4.30569 442.406 4.47939C444.898 5.96231 448.166 7.32184 451.826 7.82612C456.255 8.43652 461.251 7.78735 466.055 4.62315C466.334 4.43963 466.693 4.42913 466.982 4.59711C469.447 6.03382 472.639 7.33522 476.201 7.82612C480.805 8.46063 486.022 7.7341 490.999 4.23634C491.288 4.0332 491.672 4.02243 491.971 4.20941C494.513 5.7949 497.953 7.29138 501.834 7.82612C506.896 8.52375 512.699 7.57609 518.109 3.10892C518.468 2.81298 518.501 2.2792 518.193 1.93076L517.079 0.668994C516.771 0.320559 516.24 0.289862 515.88 0.583891C511.304 4.32059 506.511 5.07234 502.293 4.49108C497.996 3.89883 494.288 1.91419 492.123 0.21691C491.971 0.0982786 491.753 0.120009 491.631 0.268549L491.621 0.280334C491.49 0.439721 491.247 0.444001 491.111 0.289335C490.988 0.150578 490.776 0.138563 490.635 0.258971C485.943 4.27691 480.998 5.08881 476.66 4.49108C472.739 3.95068 469.309 2.25098 467.093 0.668116C467.051 0.637804 467.013 0.60303 466.978 0.563944L466.571 0.102613C466.539 0.0669813 466.485 0.0636852 466.449 0.0950125C466.418 0.122385 466.371 0.123339 466.339 0.0973055C466.331 0.0907557 466.323 0.0842108 466.315 0.077671C466.262 0.0347697 466.184 0.0423383 466.14 0.0950727L465.545 0.818971C465.506 0.866969 465.461 0.910909 465.411 0.948853C460.976 4.36938 456.362 5.0529 452.285 4.49108C447.827 3.87676 444.004 1.7643 441.879 0.0284019C441.859 0.0122898 441.83 0.015541 441.814 0.0352151L441.797 0.0559081C441.788 0.066984 441.771 0.0672806 441.762 0.056532C441.753 0.0468888 441.738 0.046121 441.729 0.0546255C436.967 4.25019 431.928 5.09983 427.518 4.49206C423.061 3.87782 419.238 1.76589 417.112 0.0301367C417.092 0.0136026 417.063 0.0169362 417.046 0.037127L417.03 0.0572468C417.02 0.0692005 417.002 0.0695197 416.991 0.0579183C416.982 0.0475096 416.966 0.0466799 416.956 0.055858C412.195 4.25036 407.156 5.09977 402.746 4.49206C398.287 3.87758 394.463 1.7642 392.338 0.028048C392.319 0.0126762 392.292 0.0157811 392.277 0.0345471L392.261 0.0542168C392.252 0.0648189 392.236 0.0651017 392.227 0.0548116C392.219 0.0455794 392.204 0.0448439 392.195 0.0529856C387.433 4.24913 382.394 5.09889 377.983 4.49108C373.526 3.87676 369.702 1.7643 367.577 0.0284019C367.557 0.0122898 367.529 0.015541 367.512 0.0352151L367.495 0.0559081C367.486 0.066984 367.47 0.0672806 367.46 0.056532C367.452 0.0468888 367.437 0.046121 367.427 0.0546255C362.665 4.25019 357.626 5.09983 353.216 4.49206C348.758 3.87772 344.935 1.76521 342.81 0.0292909C342.79 0.0132282 342.761 0.0164719 342.745 0.0360877L342.729 0.056227C342.719 0.0675239 342.702 0.06783 342.693 0.0568708C342.684 0.0470397 342.669 0.0462584 342.659 0.0549305C337.897 4.25023 332.858 5.09982 328.448 4.49206C323.99 3.87769 320.167 1.76497 318.041 0.0290014C318.022 0.0130988 317.994 0.016308 317.978 0.0357243L317.962 0.055353C317.952 0.0667016 317.935 0.0670041 317.925 0.0559892C317.917 0.0461067 317.901 0.0453191 317.892 0.0540335C313.13 4.24927 308.091 5.09884 303.681 4.49108C299.223 3.87666 295.399 1.76362 293.274 0.0275547C293.254 0.0119138 293.227 0.0150716 293.211 0.0341672L293.194 0.0549032C293.185 0.0653137 293.17 0.0655911 293.161 0.0554867C293.153 0.0464211 293.139 0.0456991 293.13 0.053694C288.368 4.25007 283.328 5.09988 278.918 4.49206C274.511 3.88483 270.725 1.8139 268.586 0.0897009C268.524 0.0403756 268.436 0.0497889 268.386 0.110506L268.364 0.137172C268.32 0.190005 268.24 0.192115 268.194 0.141641C268.152 0.0958337 268.08 0.0933155 268.034 0.134968C263.47 4.26614 258.66 5.09315 254.457 4.49319C250.222 3.88874 246.576 1.82375 244.517 0.102469C244.462 0.0563572 244.38 0.063603 244.334 0.11835L244.326 0.127352C244.279 0.182934 244.193 0.183703 244.145 0.128981C244.101 0.0793255 244.025 0.075262 243.975 0.118839C239.235 4.25886 234.225 5.09672 229.837 4.49206C225.431 3.88483 221.644 1.8139 219.505 0.0896997C219.444 0.0403755 219.355 0.0497904 219.305 0.110508L219.283 0.137163C219.24 0.19 219.16 0.192113 219.113 0.141639C219.071 0.0958321 219 0.0933154 218.954 0.134969C214.389 4.26614 209.579 5.09315 205.376 4.49319C201.154 3.89064 197.519 1.83667 195.456 0.11866C195.39 0.0637309 195.292 0.0722013 195.237 0.137554L195.214 0.163832C195.166 0.220126 195.08 0.222435 195.029 0.168788C194.982 0.118939 194.903 0.117615 194.853 0.164598C190.467 4.27539 185.863 5.08748 181.85 4.49347C177.803 3.89445 174.31 1.84964 172.326 0.13505C172.264 0.0814711 172.171 0.087893 172.117 0.149322L172.109 0.158389C172.055 0.219661 171.959 0.220493 171.904 0.160174C171.853 0.104131 171.765 0.101015 171.709 0.151912C167.15 4.2684 162.348 5.09233 158.15 4.49319C153.915 3.88873 150.27 1.82366 148.21 0.102356C148.155 0.0563057 148.074 0.0635425 148.027 0.118215L148.02 0.127222C147.972 0.182719 147.887 0.183487 147.839 0.128847C147.795 0.0792655 147.718 0.075208 147.669 0.11872C142.929 4.25884 137.918 5.09673 133.531 4.49206C129.124 3.88475 125.337 1.81331 123.198 0.0889614C123.137 0.0400394 123.049 0.0493834 123 0.1096L122.978 0.136307C122.935 0.188564 122.855 0.190653 122.81 0.140732C122.768 0.0954261 122.697 0.0929376 122.652 0.134137C118.087 4.26603 113.277 5.09319 109.073 4.49319C104.837 3.88851 101.19 1.82217 99.131 0.100501C99.0772 0.0554646 98.9978 0.0625585 98.9523 0.116016L98.9446 0.125056C98.8985 0.179196 98.8151 0.179947 98.7681 0.126646C98.7253 0.0782795 98.6508 0.074326 98.6022 0.116779C93.8616 4.25858 88.8506 5.09682 84.4622 4.49206C80.0574 3.88504 76.2721 1.81533 74.1323 0.0914882C74.0699 0.0411899 73.9793 0.0507743 73.9284 0.112706L73.9066 0.139243C73.862 0.193479 73.7797 0.195649 73.7324 0.143837C73.6894 0.0968162 73.6157 0.0942293 73.5684 0.13698C69.0045 4.26641 64.1956 5.09305 59.9928 4.49319C55.7706 3.89055 52.1345 1.83607 50.0717 0.117898C50.0062 0.0633828 49.9097 0.071797 49.8545 0.136651L49.8316 0.163518C49.7844 0.218961 49.6996 0.221235 49.6495 0.1684C49.6029 0.119305 49.5246 0.118002 49.4753 0.164279C45.089 4.2762 40.485 5.08851 36.4715 4.49444C32.4159 3.89415 28.9168 1.84189 26.9347 0.12507C26.8798 0.0774595 26.7974 0.0832605 26.7492 0.137771C26.6968 0.197129 26.6042 0.197129 26.5518 0.137771C26.5037 0.0832605 26.4198 0.0787867 26.365 0.126595C21.6276 4.25991 16.6211 5.09634 12.2362 4.49206C8.18859 3.93427 4.66403 2.14139 2.45877 0.516718C2.08454 0.241013 1.55528 0.291648 1.2601 0.65071L0.191128 1.95099C-0.10406 2.31005 -0.0539107 2.84104 0.317938 3.11995C2.90676 5.06173 7.00954 7.17016 11.7766 7.8271C16.268 8.44606 21.3423 7.76986 26.2086 4.48943C26.4991 4.29357 26.8789 4.28835 27.1745 4.47647C29.5041 5.95899 32.5558 7.31809 35.9785 7.82472C40.1896 8.44803 44.9272 7.76938 49.4573 4.53016C49.7455 4.3241 50.13 4.30947 50.432 4.49467C52.8396 5.97117 55.9892 7.32243 59.5172 7.82597C63.8883 8.44988 68.8199 7.76335 73.5386 4.46269C73.8232 4.26363 74.1991 4.24983 74.4968 4.42861C76.9996 5.93156 80.3008 7.31696 84.0026 7.8271C88.5057 8.44767 93.5947 7.76633 98.4726 4.46376C98.7597 4.26941 99.1349 4.26141 99.4297 4.44383C101.848 5.94007 105.029 7.31665 108.597 7.82597C112.967 8.44965 117.897 7.76385 122.614 4.46629C122.898 4.26742 123.274 4.25362 123.571 4.43223C126.073 5.93379 129.372 7.31737 133.071 7.8271C137.575 8.44783 142.666 7.76598 147.545 4.46121C147.832 4.26672 148.207 4.25872 148.502 4.44127C150.921 5.9385 154.104 7.31636 157.674 7.82597C162.02 8.44631 166.92 7.77116 171.615 4.51909C171.906 4.31736 172.29 4.30891 172.589 4.49854C174.914 5.97209 177.952 7.31974 181.357 7.82374C185.569 8.44711 190.307 7.76828 194.837 4.52831C195.125 4.32219 195.51 4.30757 195.812 4.49285C198.22 5.97006 201.371 7.32222 204.9 7.82597C209.27 8.44971 214.2 7.7637 218.918 4.46524C219.202 4.26632 219.578 4.25252 219.876 4.43118C222.378 5.93314 225.678 7.31725 229.377 7.8271C233.882 8.44784 238.972 7.76596 243.851 4.46105C244.139 4.26656 244.514 4.25856 244.809 4.44111C247.227 5.9384 250.41 7.31634 253.981 7.82597C258.351 8.44971 263.281 7.7637 267.999 4.46523C268.283 4.26631 268.659 4.25251 268.957 4.43117C271.459 5.93314 274.758 7.31725 278.458 7.8271C282.941 8.44495 288.006 7.77227 292.864 4.50703Z" fill="#1e40af"/>
</svg>
