<?xml version="1.0" encoding="utf-8"?>
<!-- Uploaded to: SVG Repo, www.svgrepo.com, Generator: SVG Repo Mixer Tools -->
<svg width="800px" height="800px" viewBox="0 0 1024 1024" class="icon"  version="1.1" xmlns="http://www.w3.org/2000/svg"><path d="M993.763 493.538v35c0 13.333-6.04 26.664-18.135 37.139-140.15 121.42-280.35 242.794-420.487 364.219-11.817 10.238-25.814 15.501-42.456 15.501v-35c16.642 0 30.639-5.264 42.456-15.501 140.138-121.425 280.335-242.802 420.487-364.218 12.095-10.476 18.135-23.804 18.135-37.14z" fill="#8FC4D7" /><path d="M30.239 528.367v-3.5-1.75-3.5-3.5-1.75-3.5-3.5-1.75-3.5-3.5-1.75-3.5c0 14.707 6.701 29.313 19.037 40.019 138.449 120.064 277.049 239.996 415.562 360.02 13.002 11.26 28.74 16.466 47.852 16.994v35c-19.109-0.528-34.85-5.734-47.852-16.994C326.325 808.382 187.725 688.45 49.276 568.386c-12.337-10.705-19.037-25.312-19.037-40.019z" fill="#8FC4D7" /><path d="M510.786 76.601c16.263 0 32.546 5.362 44.946 16.097 139.949 121.188 279.9 242.376 419.819 363.586 24.241 20.995 24.295 53.413 0.078 74.397-140.15 121.418-280.351 242.795-420.488 364.217-11.816 10.239-25.813 15.502-42.454 15.502-19.109-0.528-34.85-5.734-47.853-16.994-138.51-120.024-277.11-239.956-415.559-360.02-19.581-16.988-24.96-43.81-11.895-65.251 3.919-6.438 8.669-11.829 14.465-16.849C189.954 331.734 328.024 212.152 466.107 92.567c12.296-10.64 28.478-15.966 44.679-15.966z" fill="#A9DCF0" /><path d="M467.85 316.647h-0.294v-1.963-2.082-2.16-2.201-2.199-2.159-2.077-1.958h0.294c84.814 0.232 155.688 55.866 165.932 127.314V443.962c-10.244-71.449-81.118-127.084-165.932-127.315z" fill="#6BB1CB" /><path d="M635.051 445.245v16.8c0.15-79.92-75.349-145.148-167.201-145.397-8.958 0.024-17.752 0.643-26.328 1.813v-16.8a198.533 198.533 0 0 1 26.328-1.814c91.851 0.25 167.351 65.478 167.201 145.398" fill="#6BB1CB" /><path d="M467.556 316.647c-87.165 0.354-158.539 57.115-167.66 129.229v-2.101-2.102-2.103-2.102-2.1-2.099-2.097-2.097c9.121-72.113 80.495-128.875 167.66-129.229v16.801z" fill="#6BB1CB" /><path d="M635.051 445.245v16.8c0.15-79.92-75.349-145.148-167.201-145.397-8.958 0.024-17.752 0.643-26.328 1.813v-16.8a198.533 198.533 0 0 1 26.328-1.814c91.851 0.25 167.351 65.478 167.201 145.398M441.521 301.661v16.8c-13.933 1.901-27.293 5.258-39.867 9.879v-16.8c12.575-4.621 25.934-7.978 39.867-9.879M401.654 311.539v16.8c-12.327 4.531-23.896 10.276-34.505 17.056v-16.8c10.608-6.78 22.179-12.525 34.505-17.056M367.148 328.595v16.8c-13.773 8.804-25.929 19.35-36.02 31.247v-16.8c10.093-11.897 22.247-22.444 36.02-31.247" fill="#6BB1CB" /><path d="M331.129 359.842v16.8c-18.594 21.925-30.181 48.439-31.975 77.078v-16.8c1.795-28.638 13.38-55.153 31.975-77.078" fill="#6BB1CB" /><path d="M299.896 445.876a124.872 124.872 0 0 0-0.986 15.548v-16.8c0.004-5.25 0.339-10.438 0.986-15.548v16.8z" fill="#6BB1CB" /><path d="M331.129 359.842v16.8c-18.594 21.925-30.181 48.439-31.975 77.078v-16.8c1.795-28.638 13.38-55.153 31.975-77.078" fill="#6BB1CB" /><path d="M299.155 436.92v16.8a123.88 123.88 0 0 0-0.243 7.704v-16.8c0.001-2.583 0.083-5.151 0.243-7.704" fill="#6BB1CB" /><path d="M298.91 461.424v-16.549-0.25 16.799z" fill="#6BB1CB" /><path d="M298.91 444.625V461.676v-16.8-0.251" fill="#6BB1CB" /><path d="M635.051 462.045a125.82 125.82 0 0 0-1.269-18.083v-2.102-1.051-2.102-2.1-2.1-2.1-2.1-2.097-1.049a125.987 125.987 0 0 1 1.269 18.084v16.8z" fill="#6BB1CB" /><path d="M635.051 445.245v16.8c0.15-79.92-75.349-145.148-167.201-145.397-8.958 0.024-17.752 0.643-26.328 1.813v-16.8a198.533 198.533 0 0 1 26.328-1.814c91.851 0.25 167.351 65.478 167.201 145.398" fill="#6BB1CB" /><path d="M298.912 461.59v-16.8l0.001 0.769v16.8l-0.001-0.769z" fill="#6BB1CB" /><path d="M298.913 445.558v16.8l-0.001-0.768v-16.8l0.001 0.768" fill="#6BB1CB" /><path d="M662.609 446.838v16.8c0 37.428-14.229 72.037-42.466 103.659-1.725 1.937-3.479 3.866-6.019 6.686v-16.801c2.537-2.82 4.293-4.749 6.019-6.686 28.237-31.621 42.466-66.23 42.466-103.658z" fill="#6BB1CB" /><path d="M662.609 446.838v16.8c0 2.923-0.089 5.831-0.261 8.721v-16.8c0.173-2.89 0.261-5.797 0.261-8.721" fill="#6BB1CB" /><path d="M662.35 455.559v16.8c-1.954 32.515-14.893 62.843-38.661 90.866v-16.8c23.768-28.024 36.707-58.351 38.661-90.866M623.687 546.427v16.8a209.034 209.034 0 0 1-3.543 4.071c-1.725 1.938-3.479 3.866-6.019 6.686v-16.8c2.537-2.82 4.293-4.75 6.019-6.686a218.77 218.77 0 0 0 3.543-4.071" fill="#6BB1CB" /><path d="M467.159 591.046v16.8c-92.91-0.25-167.713-65.252-168.245-145.486v-16.8c0.532 80.233 75.334 145.236 168.245 145.486z" fill="#6BB1CB" /><path d="M467.159 591.046v16.8c-92.91-0.25-167.713-65.252-168.245-145.486v-16.8c0.532 80.233 75.334 145.236 168.245 145.486" fill="#6BB1CB" /><path d="M466.795 299.846c92.906 0.252 168.408 65.478 168.254 145.399-0.16 80.658-74.803 145.268-167.892 145.801-92.91-0.25-167.713-65.252-168.245-145.486-0.001-0.312-0.003-0.624-0.001-0.934 0.069-79.419 75.461-144.537 167.884-144.78z" fill="#CCE8F2" /><path d="M635.051 445.245v16.8c-0.16 80.658-74.803 145.268-167.892 145.801v-16.8c93.089-0.533 167.731-65.143 167.892-145.801z" fill="#6BB1CB" /><path d="M635.051 445.245v16.8c-0.005 2.635-0.087 5.25-0.251 7.849v-16.8c0.162-2.597 0.246-5.215 0.251-7.849M634.8 453.094v16.8c-1.832 29.341-13.545 56.287-32.329 78.427v-16.8c18.784-22.14 30.497-49.086 32.329-78.427M602.471 531.521v16.8c-10.036 11.829-22.092 22.288-35.736 31.005v-16.8c13.644-8.716 25.7-19.175 35.736-31.005M566.734 562.527v16.801c-10.51 6.715-21.962 12.396-34.158 16.879v-16.8c12.196-4.483 23.649-10.165 34.158-16.88M532.575 579.405v16.801c-12.519 4.601-25.822 7.938-39.702 9.83v-16.801c13.88-1.891 27.184-5.229 39.702-9.83M492.873 589.237v16.8a198.963 198.963 0 0 1-25.715 1.809v-16.8a198.95 198.95 0 0 0 25.715-1.809" fill="#6BB1CB" /><path d="M595.939 572.897v16.801c-2.188 1.465-3.728 2.442-5.2 3.491-25.515 18.183-54.553 30.178-86.951 35.293-13.077 2.064-25.946 3.106-38.568 3.106-38.75 0-75.252-9.814-108.88-30.028-42.892-25.776-69.976-61.132-80.874-105.495-1.612-6.547-2.176-13.288-3.256-19.929-0.181-1.126-0.533-2.226-0.805-3.344v-16.8c0.272 1.118 0.625 2.217 0.805 3.344 1.08 6.644 1.645 13.384 3.256 19.93 10.898 44.363 37.982 79.718 80.874 105.495 33.627 20.214 70.13 30.027 108.88 30.027 12.624 0 25.491-1.041 38.568-3.105 32.4-5.115 61.437-17.11 86.951-35.293 1.473-1.049 3.016-2.027 5.2-3.493z" fill="#6BB1CB" /><path d="M595.939 572.897v16.801c-2.188 1.465-3.728 2.442-5.2 3.491a206.218 206.218 0 0 1-8.634 5.83v-16.8c2.92-1.866 5.798-3.81 8.634-5.83 1.473-1.048 3.016-2.026 5.2-3.492" fill="#6BB1CB" /><path d="M582.105 582.22v16.8a200.147 200.147 0 0 1-38.798 19.25v-16.8a200.176 200.176 0 0 0 38.798-19.25" fill="#6BB1CB" /><path d="M543.308 601.47v16.8c-12.558 4.614-25.735 8.036-39.521 10.213-1.812 0.285-3.62 0.552-5.425 0.798v-16.8c1.805-0.247 3.613-0.513 5.425-0.798 13.785-2.177 26.964-5.599 39.521-10.213" fill="#6BB1CB" /><path d="M498.364 612.48v16.8c-11.215 1.534-22.269 2.307-33.144 2.307-38.75 0-75.252-9.813-108.88-30.026-42.892-25.778-69.976-61.135-80.874-105.496-1.612-6.548-2.176-13.288-3.256-19.93-0.181-1.126-0.533-2.226-0.805-3.344v-16.8c0.272 1.118 0.625 2.217 0.805 3.344 1.08 6.643 1.645 13.383 3.256 19.929 10.898 44.364 37.982 79.718 80.874 105.496 33.627 20.213 70.13 30.026 108.88 30.026 10.875 0.002 21.928-0.771 33.144-2.306" fill="#6BB1CB" /><path d="M722.051 649.533c3.086 2.681 5.444 5.989 8.145 9v5.439c-0.595 1.021-1.14 2.063-1.773 3.058-2.542 4.006-7.075 6.215-11.78 6.215-2.653 0-5.359-0.7-7.795-2.175-1.705-1.021-3.175-2.34-4.657-3.615a133873.412 133873.412 0 0 1-105.113-91.073c-1.159-1.007-2.026-2.245-3.137-3.484-2.186 1.466-3.728 2.443-5.2 3.492-25.515 18.183-54.553 30.178-86.951 35.293-13.077 2.064-25.946 3.105-38.568 3.105-38.75 0-75.252-9.813-108.88-30.025-42.892-25.778-69.976-61.134-80.874-105.497-1.61-6.547-2.176-13.288-3.256-19.93-0.181-1.126-0.533-2.226-0.805-3.344v-20.951c0.261-1.125 0.585-2.243 0.795-3.379 1.683-9.035 2.629-18.228 5.149-27.087 9.648-33.951 29.918-62.452 60.048-85.733 27.033-20.889 58.323-34.202 93.905-39.911 7.59-1.212 15.26-1.99 22.9-2.975h25.987c7.62 0.994 15.291 1.789 22.872 3.01 35.421 5.717 66.599 18.96 93.521 39.762 32.328 24.975 53.595 55.65 61.913 92.479 11.59 51.305-1.362 97.859-38.355 139.291-1.724 1.938-3.479 3.867-6.019 6.686 1.381 0.804 2.944 1.415 4.094 2.402 34.655 29.949 69.29 59.9 103.834 89.947z m-255.949-58.488c94.146-0.532 168.789-65.138 168.949-145.8 0.15-79.921-75.349-145.148-167.201-145.398-93.478 0.243-168.87 65.361-168.938 144.777-0.001 0.312 0 0.623 0.002 0.935 0.531 80.235 75.334 145.238 167.188 145.486" fill="#8FC4D7" /><path d="M730.195 663.973v16.801c-0.594 1.021-1.138 2.062-1.772 3.057-2.541 4.006-7.075 6.215-11.779 6.215-2.654 0-5.359-0.699-7.796-2.175-1.705-1.02-3.175-2.339-4.656-3.615a133874.875 133874.875 0 0 1-105.114-91.073c-1.159-1.007-2.025-2.245-3.136-3.483v-16.801c1.11 1.24 1.977 2.479 3.136 3.484 35.017 30.377 70.066 60.73 105.114 91.073 1.483 1.275 2.951 2.595 4.656 3.615a15.042 15.042 0 0 0 7.796 2.175c4.704 0 9.238-2.209 11.779-6.215 0.635-0.998 1.179-2.038 1.772-3.058z" fill="#6BB1CB" /><path d="M730.195 663.973v16.801c-0.594 1.021-1.138 2.062-1.772 3.057-0.317 0.498-0.666 0.97-1.04 1.414v-16.801a12.39 12.39 0 0 0 1.04-1.413c0.635-0.998 1.179-2.038 1.772-3.058M727.383 668.442v16.8a13.162 13.162 0 0 1-2.946 2.57v-16.8a13.16 13.16 0 0 0 2.946-2.57M724.435 671.013v16.8c-0.846 0.542-1.752 0.987-2.701 1.335v-16.801a13.82 13.82 0 0 0 2.701-1.334" fill="#6BB1CB" /><path d="M721.734 672.347v16.801c-0.982 0.362-2.012 0.616-3.064 0.761v-16.8c1.051-0.144 2.08-0.4 3.064-0.762M718.668 673.108v16.8a15.027 15.027 0 0 1-9.82-2.038c-1.705-1.02-3.175-2.339-4.656-3.615a133874.875 133874.875 0 0 1-105.114-91.073c-1.159-1.007-2.025-2.245-3.136-3.483v-16.801c1.11 1.24 1.977 2.479 3.136 3.484 35.017 30.377 70.066 60.73 105.114 91.073 1.483 1.275 2.951 2.595 4.656 3.615a15.042 15.042 0 0 0 9.82 2.038" fill="#6BB1CB" /></svg>